<?xml version="1.0" standalone="no"?>
<!DOCTYPE svg PUBLIC "-//W3C//DTD SVG 20010904//EN"
 "http://www.w3.org/TR/2001/REC-SVG-20010904/DTD/svg10.dtd">
<svg version="1.0" xmlns="http://www.w3.org/2000/svg"
 width="505.000000pt" height="505.000000pt" viewBox="0 0 505.000000 505.000000"
 preserveAspectRatio="xMidYMid meet">
<metadata>
Created by potrace 1.11, written by Peter Selinger 2001-2013
</metadata>
<g transform="translate(0.000000,505.000000) scale(0.100000,-0.100000)"
fill="#000000" stroke="none">
<path d="M1720 4869 c0 -32 29 -184 47 -247 12 -42 12 -56 2 -68 -15 -18 -5
-113 17 -156 14 -27 14 -31 0 -47 -21 -23 -20 -52 3 -127 18 -59 18 -61 0 -73
-24 -14 -25 -66 -3 -110 13 -27 14 -34 2 -48 -11 -15 -11 -16 5 -10 23 9 21
-1 -5 -22 -21 -17 -21 -20 -8 -79 7 -34 18 -70 25 -79 11 -15 2 -23 -83 -70
-53 -29 -101 -58 -106 -65 -6 -6 0 -5 14 4 63 38 180 99 228 117 l53 21 -3
-27 c-2 -17 -9 -28 -18 -28 -8 0 -14 5 -13 12 2 8 -4 10 -14 6 -15 -6 -15 -7
1 -18 25 -19 19 -24 -27 -23 -50 1 -87 -9 -87 -23 0 -6 7 -6 19 1 27 14 30 13
24 -10 -3 -11 -9 -17 -14 -14 -5 3 -9 0 -9 -7 0 -7 -8 -5 -20 6 -11 10 -20 13
-20 7 0 -7 5 -12 10 -12 6 0 10 -5 10 -12 0 -6 -3 -9 -6 -5 -4 3 -19 0 -34 -8
-20 -10 -30 -11 -32 -4 -2 7 -13 9 -26 5 -18 -6 -21 -13 -16 -29 6 -22 6 -22
-10 -2 -16 19 -16 19 -10 -10 6 -27 5 -28 -7 -12 -13 16 -16 16 -34 2 -20 -16
-20 -16 3 -12 30 7 28 -5 -5 -25 -16 -10 -41 -28 -57 -43 -16 -14 -34 -25 -40
-24 -6 0 -6 3 2 6 6 2 12 11 12 18 0 7 11 16 24 19 13 3 26 15 29 26 6 23 6
23 -71 -33 -51 -38 -72 -68 -32 -47 16 9 20 8 20 -5 0 -14 -4 -17 -32 -19 -7
-1 -15 -3 -18 -6 -21 -21 -70 -48 -74 -41 -7 10 111 124 182 175 28 21 52 40
52 43 0 6 -58 -34 -88 -61 -19 -17 -24 -18 -32 -6 -5 8 -12 11 -17 7 -4 -5 -2
-12 5 -16 9 -5 -7 -26 -53 -68 -63 -57 -70 -70 -77 -131 -1 -6 -3 -10 -6 -8
-2 3 -19 -16 -37 -42 -18 -26 -38 -46 -45 -44 -6 1 -9 -2 -6 -7 3 -5 -3 -20
-14 -32 l-19 -24 4 40 5 40 -11 -45 c-6 -24 -18 -49 -27 -56 -8 -6 -16 -20
-17 -31 -1 -12 -22 -54 -48 -95 -41 -67 -50 -75 -72 -70 -14 2 -25 7 -25 9 0
3 32 38 72 79 39 41 67 74 62 74 -5 0 -44 -36 -87 -79 -60 -61 -82 -78 -98
-74 -17 5 -20 12 -17 39 5 45 -8 44 -16 0 -6 -30 -10 -34 -29 -29 -12 3 -35 7
-52 9 -45 5 -58 9 -85 24 -53 31 -102 50 -112 44 -15 -9 -2 -77 23 -118 12
-21 18 -43 14 -54 -3 -13 0 -22 10 -26 18 -7 20 -47 3 -65 -11 -10 -9 -12 6
-9 15 2 21 -7 32 -51 8 -30 13 -59 11 -65 -2 -6 2 -25 10 -43 18 -44 17 -103
-1 -103 -8 0 -18 5 -21 10 -3 6 -11 10 -18 10 -6 0 4 -12 22 -27 29 -25 31
-31 22 -55 -6 -16 -17 -28 -25 -28 -21 0 -28 -31 -11 -50 19 -21 19 -34 1 -50
-16 -13 -14 -19 -37 125 -7 39 -12 81 -13 94 0 13 -7 26 -13 29 -15 4 -16 1
-4 -32 16 -41 22 -218 8 -235 -10 -12 -9 -14 4 -9 17 7 29 -25 29 -78 0 -13 6
-24 13 -24 9 0 8 -3 -2 -9 -7 -5 -11 -13 -8 -18 4 -6 9 -37 12 -69 3 -32 13
-81 22 -108 9 -27 13 -63 10 -83 -4 -24 -2 -36 8 -39 8 -3 11 -12 8 -20 -3 -9
1 -14 12 -14 9 0 13 -5 9 -11 -4 -7 -1 -10 7 -7 8 3 24 -5 36 -18 14 -15 23
-19 26 -11 2 6 9 -10 16 -36 6 -27 9 -52 6 -57 -3 -5 -1 -11 5 -15 5 -3 10
-21 10 -39 0 -32 -1 -33 -65 -46 -35 -7 -62 -17 -59 -22 4 -5 0 -8 -7 -7 -24
4 -119 -13 -125 -22 -7 -13 -68 -11 -81 2 -8 8 -13 8 -17 0 -4 -6 -31 -11 -59
-11 -56 0 -94 -14 -67 -24 64 -23 112 -36 150 -42 25 -4 56 -15 70 -25 14 -9
41 -20 61 -23 19 -3 53 -15 74 -26 22 -11 49 -20 61 -20 11 0 29 -9 39 -20 10
-11 25 -20 34 -20 9 0 34 -9 56 -20 21 -11 54 -25 74 -31 98 -31 138 -58 210
-142 39 -47 71 -88 71 -93 0 -4 -13 7 -30 26 -20 25 -29 30 -30 18 0 -18 46
-78 61 -78 5 0 9 7 9 15 0 9 28 -12 63 -47 34 -35 81 -78 104 -97 26 -21 39
-39 36 -49 -5 -11 0 -13 18 -8 13 3 18 3 11 0 -10 -5 -10 -9 -1 -20 14 -16 33
-19 23 -3 -10 17 30 -7 47 -28 13 -17 13 -17 -13 0 -16 10 -28 13 -28 7 0 -6
-9 -6 -26 0 -32 13 -44 13 -44 0 0 -5 5 -10 12 -10 7 0 26 -12 42 -27 20 -19
24 -20 12 -5 -17 19 -17 22 -3 22 10 0 17 -4 17 -10 0 -5 27 -27 59 -47 50
-31 81 -65 81 -89 0 -3 -19 9 -42 26 -39 28 -37 27 10 -18 48 -45 52 -51 43
-76 -6 -14 -13 -26 -15 -26 -3 0 -3 6 -1 13 3 6 -5 18 -17 26 -18 10 -20 10
-10 0 33 -35 -19 -41 -56 -6 l-24 22 18 -31 c13 -23 25 -31 48 -31 17 -1 49
-3 71 -5 22 -2 43 0 46 5 3 4 12 1 19 -8 10 -12 10 -15 -1 -16 -8 -1 0 -4 16
-8 30 -6 29 -7 -49 -59 -77 -51 -100 -60 -110 -44 -2 4 -26 22 -53 41 -26 18
-37 23 -23 11 14 -12 40 -35 59 -51 22 -20 40 -28 50 -23 9 4 20 6 24 5 5 -1
6 3 2 9 -3 5 7 16 22 22 15 7 33 18 39 24 7 6 38 24 70 40 33 16 61 32 62 37
7 14 23 7 57 -24 40 -37 36 -53 -10 -47 -19 2 -32 1 -29 -3 5 -8 -47 -22 -88
-23 -43 -2 -43 -13 1 -18 21 -2 37 0 35 4 -4 7 22 13 96 23 l46 7 38 -56 c21
-31 40 -56 43 -56 5 0 -3 15 -29 52 -25 36 -5 46 29 14 15 -15 32 -26 37 -26
4 0 35 -18 68 -40 43 -29 64 -37 76 -31 10 5 52 21 95 36 l78 27 22 -20 c19
-17 35 -20 112 -19 77 1 80 1 23 4 -38 2 -68 8 -68 12 0 5 21 18 47 29 41 18
49 18 79 6 47 -20 55 -17 14 6 l-35 18 45 21 c24 11 48 17 52 15 14 -9 61 -95
54 -101 -3 -3 -23 -9 -43 -13 -33 -6 -31 -7 22 -8 44 0 73 7 107 24 26 13 52
24 58 24 7 0 42 13 80 30 75 33 94 38 64 16 -10 -8 -16 -17 -12 -21 4 -4 13
-2 20 4 18 16 129 81 137 81 3 0 -3 -7 -13 -15 -11 -8 -16 -18 -12 -22 4 -4
18 7 32 24 29 37 77 54 149 51 40 -1 43 -2 15 -5 -50 -6 -57 -19 -10 -19 23 1
44 7 49 14 4 7 19 14 32 15 13 0 29 8 36 17 6 9 59 44 117 79 58 34 106 64
106 67 0 10 -45 -9 -75 -32 -21 -15 -38 -21 -57 -17 -28 5 -40 -11 -15 -20 9
-4 9 -6 -1 -6 -8 -1 -33 -15 -57 -32 -56 -40 -72 -35 -40 14 18 26 33 37 50
37 17 0 25 6 25 18 0 15 22 31 70 49 8 4 4 -6 -10 -21 -16 -18 -19 -25 -8 -21
9 4 19 12 21 20 3 7 20 23 37 35 32 23 32 23 26 2 l-7 -22 25 23 c13 12 22 25
20 29 -6 10 -54 -1 -74 -16 -18 -14 -67 -36 -80 -36 -25 0 -3 23 75 79 47 34
88 61 90 61 3 0 -2 -14 -10 -31 -9 -17 -14 -33 -12 -35 2 -3 16 19 31 48 21
41 46 68 111 118 46 36 84 68 85 71 0 3 -28 3 -62 1 -61 -4 -62 -3 -40 13 13
9 31 15 41 12 11 -2 18 1 18 9 0 8 -2 12 -5 10 -2 -3 -10 1 -17 7 -10 9 -4 23
29 64 22 29 47 53 55 53 8 0 11 7 8 20 -3 11 -1 20 4 20 5 0 9 6 9 13 0 6 14
32 30 56 28 42 43 80 54 144 3 15 12 35 22 44 9 10 25 36 35 59 17 36 28 45
99 78 44 20 80 38 80 41 0 2 -32 -9 -71 -26 -40 -16 -73 -29 -74 -29 -2 0 -1
10 1 23 4 20 3 20 -7 -3 -24 -53 -62 -126 -72 -138 -8 -11 -13 -9 -22 9 -7 12
-11 31 -9 43 5 36 15 79 20 87 2 4 -2 10 -8 12 -8 3 -6 6 5 6 10 1 17 9 17 21
0 11 4 20 8 20 12 0 33 49 27 61 -3 5 2 6 11 2 13 -5 15 -3 9 7 -6 10 -4 12 7
7 17 -6 24 8 48 84 7 24 7 45 1 62 -5 14 -7 27 -4 31 3 3 -25 3 -63 0 -47 -3
-64 -1 -54 6 8 5 25 6 38 3 22 -5 23 -4 12 17 -10 18 -9 24 1 31 8 5 19 7 24
5 6 -2 11 7 11 19 1 19 -3 22 -25 19 -46 -5 -71 -16 -71 -31 0 -8 9 -17 20
-20 11 -3 20 -10 20 -15 0 -6 -10 -8 -22 -4 -13 3 -26 6 -29 6 -10 0 3 54 15
62 6 5 2 8 -11 8 -19 0 -53 -23 -53 -36 0 -3 11 -17 25 -31 26 -29 26 -46 0
-19 -13 13 -19 14 -30 4 -45 -41 -46 -41 -39 -12 6 22 4 26 -9 21 -11 -4 -14
-2 -11 8 4 9 -1 13 -12 11 -10 -2 -31 12 -47 30 -28 33 -29 54 -1 54 8 0 14 5
14 11 0 6 -6 9 -12 6 -54 -22 -51 -22 -35 9 8 16 25 39 37 52 l21 22 -22 0
c-16 0 -20 -4 -15 -17 5 -15 4 -15 -9 1 -8 11 -15 24 -15 29 0 12 79 0 99 -15
14 -11 14 -11 5 2 -6 8 -14 25 -16 37 -5 19 -4 20 13 10 10 -6 19 -15 19 -18
0 -4 9 -9 20 -12 13 -3 20 0 20 8 0 8 -9 17 -20 20 -11 3 -20 11 -20 16 0 5 9
9 20 9 11 0 20 -6 20 -14 0 -8 7 -16 15 -20 8 -3 15 -15 15 -26 0 -25 17 -26
25 -1 7 24 36 36 47 19 5 -8 6 -2 2 14 -5 23 -2 29 17 37 30 11 39 3 16 -14
-15 -10 -15 -14 -3 -24 11 -9 16 -6 25 20 14 39 7 51 -26 43 -23 -6 -24 -5
-14 15 7 11 16 21 22 21 6 0 5 8 -2 21 -17 33 7 51 30 22 l19 -22 5 33 c3 19
1 53 -4 76 -7 29 -6 47 0 53 7 7 12 4 17 -9 3 -10 10 -31 16 -46 5 -15 7 -31
4 -37 -3 -5 -1 -11 6 -13 8 -3 12 -59 12 -196 1 -111 4 -179 9 -160 4 18 6 92
5 164 -2 117 0 133 18 160 23 32 38 65 36 77 -1 4 7 7 19 7 13 0 19 5 16 13
-3 7 4 24 14 38 10 13 19 31 19 40 0 9 16 37 35 62 19 25 35 53 35 61 0 8 6
19 13 23 17 10 57 76 57 93 0 7 16 30 35 51 19 22 35 46 35 55 0 9 32 54 71
101 40 46 69 87 65 90 -9 9 -58 -20 -132 -79 -34 -26 -68 -48 -76 -48 -8 0
-32 -15 -54 -34 -22 -19 -57 -38 -77 -41 -20 -4 -37 -11 -37 -16 0 -5 -9 -9
-20 -9 -13 0 -22 10 -29 33 l-9 32 -1 -32 c-1 -17 -6 -35 -13 -39 -16 -10 -3
67 14 78 11 6 10 10 -1 17 -9 6 -12 26 -10 62 1 30 0 61 -3 69 -32 85 -38 115
-38 178 0 40 -4 72 -9 72 -5 0 -7 -30 -5 -67 4 -55 2 -63 -6 -43 -6 13 -14 27
-18 30 -10 6 -52 66 -52 73 0 3 10 3 23 0 12 -3 19 -3 16 0 -3 4 -16 8 -30 10
-32 5 -47 47 -31 89 10 28 9 33 -11 47 -12 8 -57 46 -101 84 -59 51 -81 65
-88 55 -6 -9 -8 -7 -6 7 2 14 -9 25 -44 42 -27 13 -49 30 -49 38 -1 8 -3 20
-4 25 -1 6 -3 16 -4 24 0 8 -7 21 -14 28 -13 14 -37 96 -37 127 0 10 -9 26
-20 36 -16 14 -20 31 -20 82 0 65 -20 133 -40 133 -19 0 -46 -34 -70 -87 -13
-29 -28 -53 -32 -53 -5 0 -6 -4 -3 -10 3 -5 0 -7 -9 -4 -10 4 -22 -5 -35 -28
-27 -46 -59 -84 -106 -127 -22 -20 -55 -51 -74 -69 l-35 -34 -55 25 c-80 36
-295 103 -395 123 -20 4 -222 30 -289 38 -21 2 -41 7 -45 11 -8 9 115 -1 141
-10 10 -4 17 -2 17 4 0 6 -11 13 -24 17 -36 9 -225 10 -219 2 2 -5 20 -8 40
-8 55 0 33 -10 -36 -16 -55 -5 -65 -4 -82 15 -16 17 -17 21 -4 21 8 0 15 5 15
10 0 14 -33 12 -50 -2 -10 -9 -9 -6 2 12 16 26 72 47 143 55 22 2 62 9 88 15
40 10 54 9 81 -4 19 -9 43 -16 55 -16 14 0 19 -5 15 -15 -4 -10 0 -15 15 -15
11 0 44 -9 73 -20 62 -23 58 -23 58 -11 0 5 -14 13 -31 16 -18 4 -48 14 -68
22 -32 14 -34 16 -18 28 12 8 14 15 8 20 -6 3 -11 2 -11 -3 0 -9 -23 -7 -79 4
-20 4 -22 7 -10 15 16 10 14 10 -61 13 -33 2 -66 10 -83 21 -21 13 -31 15 -40
6 -8 -8 -7 -11 6 -11 21 0 67 -21 67 -31 0 -4 -13 -7 -28 -7 -15 1 -38 -4 -50
-11 -12 -6 -51 -14 -87 -18 -70 -6 -100 6 -92 38 3 10 0 21 -7 24 -7 3 -7 7 3
11 9 5 1 12 -24 24 l-37 17 38 32 c43 35 46 35 77 20 19 -9 19 -8 -2 9 l-25
20 -52 -35 c-29 -19 -57 -32 -62 -29 -5 3 -12 18 -15 33 -9 45 -50 98 -75 97
-12 0 -22 5 -22 13 0 32 -60 143 -82 152 -16 6 -30 27 -46 74 -23 64 -52 104
-70 93 -5 -3 -30 43 -55 102 -26 59 -57 125 -70 147 -26 46 -57 59 -57 24z
m924 -1031 c11 1 15 -3 10 -8 -11 -11 -64 -1 -64 12 0 6 8 7 18 3 9 -4 26 -7
36 -7z m-69 -8 c3 -5 1 -10 -4 -10 -6 0 -11 5 -11 10 0 6 2 10 4 10 3 0 8 -4
11 -10z m-30 -10 c-3 -5 -12 -10 -18 -10 -7 0 -6 4 3 10 19 12 23 12 15 0z
m152 -27 c-9 -8 -48 8 -42 18 4 5 14 5 26 -2 12 -6 18 -13 16 -16z m-257 -3
c0 -5 -7 -7 -15 -4 -8 4 -15 8 -15 10 0 2 7 4 15 4 8 0 15 -4 15 -10z m95 0
c3 -5 -1 -10 -9 -10 -9 0 -16 5 -16 10 0 6 4 10 9 10 6 0 13 -4 16 -10z m538
-11 c4 -16 3 -18 -9 -8 -7 6 -11 15 -8 20 8 13 11 11 17 -12z m-903 1 c0 -5 7
-10 15 -10 27 0 16 -16 -19 -27 -28 -9 -36 -8 -40 4 -3 7 2 17 12 21 13 5 8 8
-18 13 l-35 6 43 2 c23 0 42 -3 42 -9z m85 0 c-3 -5 -15 -10 -26 -10 -11 0
-17 5 -14 10 3 6 15 10 26 10 11 0 17 -4 14 -10z m390 0 c-3 -5 -12 -10 -18
-10 -7 0 -6 4 3 10 19 12 23 12 15 0z m-611 -14 c-3 -8 -14 -11 -32 -7 l-27 5
30 7 c17 4 31 7 32 8 1 0 0 -5 -3 -13z m871 4 c3 -5 2 -10 -4 -10 -5 0 -13 5
-16 10 -3 6 -2 10 4 10 5 0 13 -4 16 -10z m-914 -30 c13 -10 18 -19 12 -20 -7
0 -13 5 -13 11 0 6 -7 9 -15 5 -8 -3 -15 0 -15 7 0 8 -4 6 -10 -3 -7 -11 -5
-19 7 -27 12 -9 13 -13 4 -13 -22 0 -41 33 -29 47 15 18 32 16 59 -7z m102 6
c7 -18 -17 -53 -26 -38 -4 5 -15 8 -25 5 -12 -3 -19 1 -19 11 0 9 4 16 9 16 4
0 8 -4 8 -8 0 -4 9 -8 20 -8 15 0 18 5 14 18 -6 21 11 25 19 4z m1112 8 c12
-5 14 -9 4 -14 -14 -9 -39 -2 -39 11 0 11 12 11 35 3z m-62 -35 c-6 -6 -19 -9
-29 -6 -17 3 -16 5 6 14 28 12 39 8 23 -8z m92 11 c-4 -7 2 -9 17 -5 17 4 32
0 49 -15 22 -19 22 -20 2 -11 -26 13 -46 14 -39 2 3 -5 -2 -8 -12 -7 -24 2
-39 46 -16 46 3 0 2 -5 -1 -10z m-1046 -22 c9 -24 3 -58 -9 -58 -13 0 -26 24
-29 53 -3 34 26 38 38 5z m471 -2 c0 -2 -7 -7 -16 -10 -8 -3 -12 -2 -9 4 6 10
25 14 25 6z m547 -7 c-10 -6 -31 -12 -48 -14 -29 -4 -73 -24 -53 -25 12 0 15
-30 2 -30 -4 0 -8 7 -8 16 0 11 -6 14 -22 9 -18 -6 -20 -5 -11 5 13 14 103 45
136 47 20 2 20 1 4 -8z m-767 -9 c0 -5 -2 -10 -4 -10 -3 0 -8 5 -11 10 -3 6
-1 10 4 10 6 0 11 -4 11 -10z m160 -5 c-7 -8 -18 -15 -24 -15 -6 0 -2 7 8 15
25 19 32 19 16 0z m460 5 c0 -5 -4 -10 -10 -10 -5 0 -10 5 -10 10 0 6 5 10 10
10 6 0 10 -4 10 -10z m-365 -10 c-3 -5 -12 -10 -18 -10 -7 0 -6 4 3 10 19 12
23 12 15 0z m375 -50 c0 -4 -7 -10 -15 -14 -8 -3 -14 0 -12 7 1 7 -3 11 -9 10
-7 -1 -14 9 -16 22 l-5 24 28 -20 c16 -11 29 -24 29 -29z m117 36 c-10 -8 -14
-16 -10 -18 4 -3 3 -3 -4 -2 -6 2 -14 -2 -17 -9 -2 -7 -5 -5 -5 4 -1 9 9 21
22 27 30 15 35 14 14 -2z m44 0 c-19 -23 5 -29 40 -11 17 9 28 12 25 6 -4 -6
-1 -11 6 -11 8 -1 6 -6 -6 -15 -23 -18 -40 -20 -30 -4 4 7 1 10 -7 7 -8 -3
-13 -10 -12 -16 2 -6 -4 -9 -12 -6 -8 4 -12 11 -8 17 4 6 0 8 -10 4 -12 -4
-14 -2 -10 11 4 9 11 20 17 24 17 12 20 9 7 -6z m-581 -5 c0 -5 -9 -13 -21
-16 -12 -4 -18 -12 -15 -21 6 -15 -9 -19 -19 -5 -3 5 7 19 21 30 30 24 34 25
34 12z m793 -9 c12 -10 16 -10 19 -1 7 20 186 -108 274 -195 122 -123 246
-286 312 -411 42 -80 112 -237 113 -253 0 -11 2 -13 6 -4 3 7 -2 31 -11 54 -9
22 -15 42 -13 44 2 2 27 -21 55 -50 l52 -54 -30 -10 c-18 -7 -32 -7 -35 -1 -4
5 -10 7 -15 4 -5 -3 -23 23 -39 57 -32 67 -58 108 -47 76 3 -10 4 -18 2 -18
-2 0 -34 -11 -71 -25 -38 -13 -71 -23 -73 -20 -5 4 59 32 95 41 13 4 23 10 23
15 0 5 -24 0 -52 -11 -76 -29 -83 -23 -13 10 78 38 61 38 -39 0 -44 -16 -82
-27 -84 -25 -3 2 6 9 19 14 83 32 126 49 144 56 11 4 23 7 28 7 4 -1 7 3 7 8
0 14 1 14 -86 -20 -43 -16 -79 -28 -82 -26 -5 6 87 46 121 53 27 5 48 23 28
23 -6 0 -41 -11 -78 -25 -37 -13 -69 -23 -70 -21 -3 3 92 46 131 60 10 4 16 9
13 12 -3 4 -36 -6 -73 -20 -36 -15 -69 -25 -72 -22 -2 3 6 10 19 15 62 24 93
40 78 41 -9 0 -33 -7 -54 -16 -20 -8 -39 -13 -42 -10 -5 5 55 33 94 42 13 4
23 10 23 15 0 4 -25 -1 -57 -12 -72 -24 -91 -23 -34 2 53 23 49 37 -4 14 -21
-8 -40 -13 -43 -10 -3 2 15 13 39 24 37 16 46 17 55 5 17 -21 26 -17 18 9 -9
30 -11 32 -26 20 -7 -6 -25 -13 -40 -17 -14 -3 -34 -8 -45 -12 -10 -3 -6 2 10
11 27 16 37 31 15 22 -7 -2 -24 -7 -38 -11 -22 -6 -21 -5 5 10 33 19 19 32
-14 14 -14 -7 -21 -7 -21 0 0 5 6 10 14 10 8 0 18 5 21 10 4 7 -2 9 -19 4 -14
-3 -26 -3 -26 0 0 8 63 36 80 36 17 0 11 -18 -7 -23 -13 -3 -14 -5 -3 -6 8 0
21 3 29 8 12 8 12 12 3 24 -11 13 -19 12 -64 -5 -28 -10 -53 -16 -56 -14 -6 7
61 36 83 36 18 0 18 2 3 35 -6 14 -18 25 -27 25 -14 0 -14 2 -1 10 12 8 10 10
-9 10 -16 0 -22 -4 -17 -15 3 -8 0 -15 -7 -16 -7 -1 -1 -5 13 -9 16 -5 19 -8
8 -9 -9 -1 -20 -5 -23 -11 -4 -6 7 -8 27 -5 l33 5 -31 -14 c-17 -8 -44 -18
-60 -22 -28 -6 -29 -6 -9 11 19 15 19 16 1 11 -10 -4 -34 -4 -52 0 -32 6 -33
7 -18 30 15 22 14 26 -5 56 -48 76 -51 77 -146 79 -76 2 -85 4 -69 16 10 7 13
13 7 13 -6 0 -16 -6 -22 -14 -12 -15 -81 -18 -81 -4 0 4 6 8 13 9 9 0 9 2 -1
6 -6 2 -9 9 -6 15 4 6 -2 6 -14 -1 -31 -16 -49 -13 -26 4 19 15 19 15 -1 9
-15 -5 -13 0 10 21 23 20 24 23 5 11 -32 -21 -46 -20 -29 2 13 15 12 16 -3 4
-21 -17 -64 -6 -49 12 14 17 -1 37 -19 26 -11 -7 -12 -10 -2 -10 7 0 10 -5 6
-11 -4 -8 -9 -7 -15 2 -4 7 -3 19 2 25 7 9 4 14 -10 19 -12 3 -25 3 -31 0 -5
-3 -10 -4 -10 -1 0 3 12 12 28 20 15 8 21 15 14 16 -7 0 -10 5 -6 11 4 8 9 7
15 -2 4 -8 3 -19 -3 -26 -7 -9 -7 -13 0 -13 6 0 14 5 17 11 4 6 13 8 20 5 8
-3 20 6 29 19 12 18 13 24 2 28 -7 3 -19 1 -27 -4 -11 -7 -11 -9 -1 -9 7 0 10
-4 7 -10 -9 -14 -22 -12 -29 5 -8 22 29 39 55 25 16 -9 23 -8 33 5 7 10 18 14
30 9 17 -6 16 -8 -5 -20 -15 -8 -18 -14 -9 -14 12 0 11 -3 -3 -11 -9 -5 -22
-7 -27 -4 -6 3 -7 -1 -4 -10 5 -12 10 -13 17 -6 6 6 18 11 27 11 8 0 0 -10
-19 -22 l-33 -21 27 -14 c15 -8 29 -12 33 -9 3 3 0 6 -7 6 -7 0 -9 4 -6 10 4
6 -1 7 -12 3 -16 -5 -16 -4 -3 10 8 8 26 18 40 22 24 7 24 7 5 -9 -25 -20 -7
-21 19 -1 11 8 14 15 7 15 -7 0 -9 4 -6 10 4 6 -1 7 -12 4 -16 -5 -15 -3 2 11
20 17 20 17 -5 11 -22 -6 -23 -5 -9 6 15 12 15 15 0 28 -8 8 -20 16 -26 16 -5
1 -14 2 -18 3 -5 0 -5 5 -2 11 8 12 38 8 58 -8z m-563 5 c0 -2 -15 -16 -32
-33 -27 -24 -29 -25 -13 -4 24 30 45 47 45 37z m126 -24 c-10 -11 -19 -7 -22
10 -2 15 0 16 12 6 8 -6 12 -14 10 -16z m-472 2 c-4 -8 -11 -12 -17 -8 -6 3
-7 1 -3 -5 4 -7 14 -12 22 -12 8 0 13 -4 9 -10 -3 -6 -15 -5 -30 2 -24 11 -24
12 -9 30 21 22 36 24 28 3z m830 9 c16 -6 12 -24 -5 -24 -6 0 -7 5 -3 12 5 8
2 9 -10 5 -10 -4 -15 -3 -11 3 7 12 8 12 29 4z m-1694 -14 c0 -5 -2 -10 -4
-10 -3 0 -8 5 -11 10 -3 6 -1 10 4 10 6 0 11 -4 11 -10z m530 6 c0 -3 -4 -8
-10 -11 -5 -3 -10 -1 -10 4 0 6 5 11 10 11 6 0 10 -2 10 -4z m190 -6 c0 -5 -7
-7 -15 -4 -8 4 -15 8 -15 10 0 2 7 4 15 4 8 0 15 -4 15 -10z m571 -8 c-7 -2
-18 1 -23 6 -8 8 -4 9 13 5 13 -4 18 -8 10 -11z m126 -16 c0 -8 -6 -12 -15 -9
-11 5 -11 7 0 14 7 5 13 9 14 9 0 0 1 -6 1 -14z m123 9 c0 -2 -13 -11 -30 -20
-38 -19 -40 -11 -2 9 31 17 32 18 32 11z m-970 -15 c0 -5 -5 -10 -11 -10 -5 0
-7 5 -4 10 3 6 8 10 11 10 2 0 4 -4 4 -10z m424 -15 c3 -8 0 -17 -6 -21 -6 -4
-8 -3 -4 4 3 6 -3 13 -14 17 -11 4 -18 10 -15 15 7 12 32 2 39 -15z m606 21
c0 -2 -8 -10 -17 -17 -16 -13 -17 -12 -4 4 13 16 21 21 21 13z m-1170 -16 c0
-5 -4 -10 -10 -10 -5 0 -10 5 -10 10 0 6 5 10 10 10 6 0 10 -4 10 -10z m594 4
c15 -6 11 -34 -6 -34 -5 0 -6 5 -2 11 3 6 0 15 -7 20 -16 10 -8 12 15 3z m279
-13 c-2 -6 2 -11 8 -11 5 0 7 -5 4 -10 -9 -14 -21 -5 -28 20 -3 14 -1 20 6 17
7 -3 11 -10 10 -16z m937 -13 c0 -12 -14 -10 -28 4 -19 19 -14 29 8 16 11 -7
20 -16 20 -20z m-1983 16 c-9 -9 -67 -11 -67 -2 0 4 17 8 37 8 20 0 34 -3 30
-6z m555 -5 c16 -9 23 -8 29 2 6 10 9 11 9 2 0 -7 12 -14 28 -14 24 -2 24 -2
4 -6 -17 -3 -21 -9 -17 -23 4 -13 1 -17 -11 -16 -9 0 -19 -6 -21 -14 -3 -11
-2 -11 4 -3 11 16 56 5 46 -11 -5 -7 -1 -4 8 5 15 17 17 17 34 1 10 -9 15 -11
11 -4 -4 6 -3 12 3 12 5 0 14 -8 20 -17 9 -17 11 -17 26 2 16 19 16 19 5 -3
-6 -13 -17 -21 -25 -19 -8 4 -12 -2 -11 -17 1 -16 6 -22 16 -18 13 5 13 4 1
-12 -20 -24 -23 -126 -5 -119 23 9 16 -5 -12 -23 -22 -15 -27 -15 -35 -3 -7
11 -9 11 -9 0 0 -8 -6 -11 -16 -7 -8 3 -13 2 -10 -3 3 -4 -19 -15 -48 -23
l-54 -15 10 29 c6 17 16 27 23 24 9 -3 11 2 7 16 -4 15 -2 19 7 13 10 -6 11
-3 3 11 -10 19 3 93 21 122 5 7 4 12 -3 12 -13 0 -32 -48 -24 -61 3 -5 0 -9
-5 -9 -6 0 -10 -3 -9 -7 1 -5 -6 -23 -16 -41 -9 -19 -15 -40 -12 -48 3 -8 2
-13 -3 -10 -5 3 -15 -2 -22 -11 -10 -12 -10 -14 -1 -9 6 4 12 2 12 -3 0 -6 -5
-11 -11 -11 -5 0 -8 -4 -5 -8 3 -5 -2 -28 -10 -51 -8 -24 -12 -52 -9 -62 4
-10 2 -19 -3 -19 -5 0 -13 19 -18 43 -8 38 -12 42 -41 45 -23 2 -33 10 -41 30
-12 33 -11 72 2 72 5 0 6 3 3 7 -4 3 -2 12 4 19 16 19 21 76 6 71 -7 -2 -11
-12 -10 -23 2 -19 -21 -69 -36 -78 -5 -3 -7 2 -4 12 2 11 -3 26 -12 36 -9 9
-11 16 -5 16 8 0 8 6 0 21 -6 11 -13 28 -15 37 -7 39 -11 47 -23 60 -13 15 -7
36 9 27 5 -3 6 1 3 9 -3 9 -11 16 -17 16 -6 0 -7 3 -4 6 4 4 13 1 21 -5 8 -7
20 -10 27 -6 8 5 8 1 -1 -15 -9 -17 -9 -25 0 -34 8 -8 9 -6 4 9 -6 16 -4 18 6
8 17 -16 20 -51 8 -78 -9 -20 -9 -20 6 -1 9 11 14 27 11 35 -6 21 14 52 22 34
2 -7 9 -13 14 -13 6 0 8 4 5 9 -4 5 0 12 6 15 7 3 0 5 -17 5 -52 -2 -57 0 -50
20 4 15 -1 20 -30 25 -19 4 -35 12 -35 17 0 6 10 8 23 4 34 -10 67 -28 67 -37
0 -4 9 -8 20 -8 15 0 19 6 17 22 -1 17 4 24 21 26 12 2 22 -1 22 -7 0 -6 -4
-11 -9 -11 -5 0 -8 -12 -7 -27 2 -15 -3 -33 -10 -41 -18 -18 -18 -32 1 -32 17
0 34 30 27 49 -2 8 0 11 5 8 6 -4 11 4 11 19 0 31 10 43 22 24 9 -14 11 -13
14 10 1 9 24 29 34 30 2 0 13 -5 24 -11z m-632 -15 c0 -8 -5 -12 -10 -9 -6 4
-8 11 -5 16 9 14 15 11 15 -7z m1018 -2 c2 -6 -5 -8 -17 -5 -12 3 -21 9 -21
13 0 12 33 5 38 -8z m-253 -2 c8 -13 -5 -13 -25 0 -13 8 -13 10 2 10 9 0 20
-4 23 -10z m400 -21 c4 -6 13 -8 21 -5 21 8 17 -7 -6 -21 -17 -11 -18 -10 -13
5 5 13 0 11 -20 -7 -30 -27 -37 -52 -9 -30 15 12 16 12 4 -2 -7 -9 -10 -23 -6
-32 3 -8 0 -18 -7 -23 -8 -4 -10 -3 -5 4 4 6 2 21 -4 32 -9 16 -8 25 1 36 17
21 5 28 -15 9 -9 -9 -16 -13 -16 -9 0 9 51 53 62 54 4 0 10 -5 13 -11z m-1269
-14 c-11 -8 -25 -15 -30 -15 -6 0 -2 7 8 15 11 8 25 15 30 15 6 0 2 -7 -8 -15z
m1339 5 c-3 -5 2 -10 12 -10 15 0 16 -2 3 -10 -10 -6 -16 -6 -18 0 -2 6 -9 7
-15 3 -7 -4 -6 1 2 10 15 18 26 23 16 7z m-240 -10 c-3 -5 -12 -10 -18 -10 -7
0 -6 4 3 10 19 12 23 12 15 0z m-953 -23 c5 -28 -1 -49 -12 -42 -5 3 -7 12 -3
20 3 9 -1 15 -11 15 -9 0 -16 5 -16 11 0 5 5 7 10 4 6 -3 10 -1 10 4 0 21 18
11 22 -12z m1288 19 c0 -2 -7 -7 -16 -10 -8 -3 -12 -2 -9 4 6 10 25 14 25 6z
m801 -6 c5 0 9 -28 9 -62 -1 -60 -1 -62 -15 -38 -8 14 -14 39 -15 56 0 16 -6
36 -12 43 -11 11 -10 13 5 7 10 -3 23 -6 28 -6z m-1839 -7 c-10 -4 -9 -10 5
-25 18 -20 18 -21 -3 -10 -12 6 -25 8 -29 4 -3 -4 -5 0 -3 8 3 17 18 30 33 29
6 0 4 -3 -3 -6z m-341 -13 c13 -8 19 -7 19 0 0 6 5 8 11 4 8 -5 8 -9 -1 -14
-14 -9 -48 -2 -56 11 -7 12 3 11 27 -1z m189 6 c0 -3 -4 -8 -10 -11 -5 -3 -10
-1 -10 4 0 6 5 11 10 11 6 0 10 -2 10 -4z m195 -6 c-3 -5 -11 -10 -16 -10 -6
0 -7 5 -4 10 3 6 11 10 16 10 6 0 7 -4 4 -10z m696 -33 c-10 -9 -11 -8 -5 6 3
10 9 15 12 12 3 -3 0 -11 -7 -18z m228 14 c7 -5 9 -11 5 -14 -5 -3 -15 1 -22
9 -14 16 -5 18 17 5z m155 -6 c-4 -8 -11 -15 -16 -15 -6 0 -5 6 2 15 7 8 14
15 16 15 2 0 1 -7 -2 -15z m856 -46 c0 -4 -6 -12 -14 -18 -10 -9 -19 -3 -40
29 -14 22 -26 42 -26 45 0 8 80 -48 80 -56z m-1070 47 c0 -2 -8 -10 -17 -17
-16 -13 -17 -12 -4 4 13 16 21 21 21 13z m250 -7 c0 -5 6 -7 13 -3 8 5 8 2 -2
-9 -8 -10 -9 -17 -3 -17 6 0 14 5 17 10 3 6 11 10 17 10 6 0 -7 -16 -28 -36
-22 -19 -31 -32 -21 -29 10 4 17 2 17 -4 0 -6 -7 -11 -15 -11 -15 0 -40 38
-31 48 3 3 6 0 6 -7 0 -7 5 -9 11 -5 8 4 7 9 -2 14 -7 5 -23 2 -36 -7 -21 -14
-23 -14 -17 1 3 9 1 16 -5 16 -6 0 -11 -4 -11 -10 0 -5 -5 -10 -12 -10 -6 0
-3 9 7 20 14 16 20 17 26 8 6 -10 14 -8 31 10 24 24 38 28 38 11z m761 -57
c11 -20 10 -26 -14 -50 l-27 -27 0 41 c0 23 -3 57 -6 75 l-6 34 21 -25 c11
-14 26 -35 32 -48z m-2205 46 c4 -6 2 -8 -4 -4 -5 3 -12 2 -14 -3 -2 -5 -13
-4 -27 3 -23 13 -23 13 8 14 17 0 34 -4 37 -10z m304 -36 c-5 -2 -6 -11 -3
-20 4 -10 2 -13 -3 -9 -5 5 -9 22 -10 38 -2 27 0 28 11 12 8 -10 10 -19 5 -21z
m890 18 c-6 -11 -15 -20 -20 -20 -6 0 -2 9 7 20 10 11 19 20 21 20 1 0 -2 -9
-8 -20z m31 -3 c-10 -9 -11 -8 -5 6 3 10 9 15 12 12 3 -3 0 -11 -7 -18z m119
20 c0 -2 -12 -14 -27 -28 -20 -18 -24 -19 -13 -4 18 24 40 42 40 32z m-1464
-39 c-9 -5 -16 -13 -16 -19 0 -12 52 0 62 15 13 18 9 28 -8 22 -9 -3 -12 -2
-9 5 11 17 38 5 40 -18 1 -13 -2 -23 -7 -23 -5 0 -7 -4 -4 -8 3 -5 -8 -8 -24
-7 -17 1 -30 -2 -30 -7 0 -5 8 -8 18 -6 33 5 43 -11 21 -33 -23 -23 -39 -18
-19 6 10 13 9 15 -9 15 -13 0 -26 -10 -33 -25 -6 -14 -15 -25 -20 -25 -5 0 -6
5 -3 10 3 6 1 10 -4 10 -6 0 -11 -9 -11 -21 0 -30 -25 -17 -25 13 -1 19 3 24
14 20 10 -4 12 -1 6 7 -5 10 -2 12 11 7 11 -3 26 -1 34 4 13 8 12 11 -4 23
-17 12 -17 14 -1 30 9 9 13 17 8 17 -4 0 -1 5 7 10 10 6 16 6 19 -2 2 -6 -4
-15 -13 -20z m390 14 c1 -7 0 -8 -3 -2 -2 5 -9 10 -14 10 -6 0 -7 -4 -4 -10 3
-5 2 -10 -4 -10 -16 0 -22 18 -9 23 18 7 31 3 34 -11z m-725 -23 c-18 -17 -36
-28 -39 -24 -8 8 44 55 60 55 6 0 -4 -14 -21 -31z m159 21 c0 -5 -2 -10 -4
-10 -2 0 -12 -3 -22 -7 -16 -6 -17 -5 -4 10 17 19 30 22 30 7z m1796 -9 c0
-11 -3 -18 -6 -16 -3 2 -10 -8 -17 -21 -12 -26 -5 -31 17 -11 8 6 6 2 -4 -10
-11 -13 -14 -23 -8 -23 7 0 12 -4 12 -10 0 -18 -17 -10 -27 13 -13 28 -10 61
6 81 18 21 27 20 27 -3z m-1516 -19 c-7 -3 4 -21 27 -46 l38 -41 -40 37 c-23
21 -41 47 -41 57 0 16 3 18 14 8 10 -8 11 -12 2 -15z m92 -16 c7 5 8 3 4 -5
-5 -7 0 -21 11 -33 16 -20 17 -21 1 -15 -22 8 -23 3 -1 -22 9 -11 20 -18 25
-15 4 3 5 -2 2 -10 -4 -10 -1 -16 7 -16 7 0 9 -3 5 -7 -12 -12 -67 57 -61 77
3 11 -1 20 -11 24 -12 5 -15 2 -10 -9 3 -10 2 -13 -5 -10 -6 4 -8 14 -4 23 4
10 -5 25 -22 40 -24 21 -23 20 10 -2 20 -15 42 -24 49 -20z m113 34 c3 -6 -1
-7 -9 -4 -18 7 -21 14 -7 14 6 0 13 -4 16 -10z m903 -25 c-3 -3 -9 2 -12 12
-6 14 -5 15 5 6 7 -7 10 -15 7 -18z m453 16 c-7 -5 -11 -14 -7 -20 5 -7 1 -9
-9 -5 -12 5 -13 9 -4 20 6 8 17 14 23 14 6 0 5 -4 -3 -9z m-1786 -11 c3 -5 1
-10 -4 -10 -6 0 -11 5 -11 10 0 6 2 10 4 10 3 0 8 -4 11 -10z m425 -12 c11
-12 20 -27 20 -32 0 -6 -5 -4 -10 4 -5 8 -20 16 -32 18 -13 1 -28 3 -35 4 -18
2 -3 28 18 28 10 0 27 -10 39 -22z m610 18 c0 -3 -4 -8 -10 -11 -5 -3 -10 -1
-10 4 0 6 5 11 10 11 6 0 10 -2 10 -4z m560 -7 c0 -15 -18 -19 -23 -6 -3 8 1
14 9 14 8 0 14 -4 14 -8z m40 7 c0 -2 -8 -10 -17 -17 -16 -13 -17 -12 -4 4 13
16 21 21 21 13z m-1175 -16 c3 -6 -1 -7 -9 -4 -18 7 -21 14 -7 14 6 0 13 -4
16 -10z m135 -7 c0 -3 -7 -2 -16 1 -12 5 -15 2 -10 -11 6 -14 4 -15 -5 -6 -14
14 -3 34 16 26 8 -3 15 -7 15 -10z m1910 7 c0 -5 -5 -10 -11 -10 -5 0 -7 5 -4
10 3 6 8 10 11 10 2 0 4 -4 4 -10z m-2690 -9 c0 -5 -18 -18 -41 -29 -23 -12
-35 -22 -27 -25 9 -4 9 -6 -2 -6 -8 0 -21 3 -29 8 -9 6 0 13 33 26 25 10 46
22 46 26 0 5 5 9 10 9 6 0 10 -4 10 -9z m685 -2 c11 -16 1 -19 -13 -3 -7 8 -8
14 -3 14 5 0 13 -5 16 -11z m65 -42 c0 -6 -9 0 -20 13 -11 13 -20 25 -20 28 0
3 9 -3 20 -13 11 -10 20 -23 20 -28z m801 20 c-10 -9 -11 -8 -5 6 3 10 9 15
12 12 3 -3 0 -11 -7 -18z m-1136 -16 c-6 -5 -25 10 -25 20 0 5 6 4 14 -3 8 -7
12 -15 11 -17z m160 18 c11 -16 1 -19 -13 -3 -7 8 -8 14 -3 14 5 0 13 -5 16
-11z m212 -19 c0 -20 -3 -26 -9 -18 -6 10 -8 10 -8 -1 0 -8 -2 -12 -5 -9 -5 4
14 58 20 58 1 0 2 -14 2 -30z m433 26 c0 -3 -4 -8 -10 -11 -5 -3 -10 -1 -10 4
0 6 5 11 10 11 6 0 10 -2 10 -4z m1450 -25 c0 -14 -6 -17 -25 -13 -24 4 -25 5
-9 23 19 21 34 16 34 -10z m-2600 -21 c5 0 10 5 10 10 0 6 7 10 15 10 8 0 15
5 15 10 0 6 13 4 30 -5 35 -18 39 -25 10 -18 -12 3 -20 2 -19 -3 4 -22 -2 -34
-16 -34 -8 0 -15 -5 -15 -12 0 -6 -3 -9 -6 -6 -3 4 0 16 6 28 11 20 10 21 -9
15 -28 -9 -62 11 -54 32 5 14 8 13 14 -5 5 -12 13 -22 19 -22z m544 -2 c-3
-10 -1 -18 4 -18 6 0 8 -8 5 -18 -2 -10 5 -28 16 -41 12 -13 21 -29 21 -34 0
-9 -9 0 -48 48 -18 22 -25 38 -14 31 7 -4 9 7 7 36 -3 29 -1 38 5 28 5 -8 7
-23 4 -32z m111 12 l20 -25 -22 19 c-13 11 -23 24 -23 29 0 6 1 8 3 6 1 -2 11
-15 22 -29z m1528 -12 c41 -51 27 -68 -55 -68 -51 0 -59 -2 -56 -17 3 -15 18
-19 80 -24 103 -9 138 -31 178 -114 38 -80 39 -119 4 -142 -31 -20 -282 -74
-290 -62 -8 13 -44 122 -42 125 2 1 41 9 87 18 46 8 85 17 88 19 2 2 1 12 -3
21 -5 12 -20 16 -64 16 -104 0 -142 26 -196 132 -40 80 -43 115 -11 128 12 5
73 8 136 7 l114 -2 30 -37z m-2052 15 c13 -15 12 -15 -8 -4 -24 12 -29 21 -14
21 5 0 15 -7 22 -17z m364 -12 c-6 -5 -25 10 -25 20 0 5 6 4 14 -3 8 -7 12
-15 11 -17z m76 2 c-12 -20 -14 -14 -5 12 4 9 9 14 11 11 3 -2 0 -13 -6 -23z
m1267 -80 c67 -141 146 -373 129 -378 -51 -15 -142 -33 -149 -29 -4 3 -8 11
-8 19 0 32 -73 252 -120 361 -27 64 -50 118 -50 120 0 3 58 10 111 12 l36 2
51 -107z m-1512 85 c5 -7 3 -8 -6 -3 -10 6 -12 4 -7 -9 6 -14 4 -15 -16 -5
-23 13 -23 13 20 28 1 1 5 -4 9 -11z m-511 -8 c3 -5 1 -10 -6 -10 -7 0 -10 -3
-6 -6 6 -6 -16 -34 -26 -34 -3 0 0 14 6 30 12 31 21 37 32 20z m1741 -31 c35
-21 84 -107 84 -146 0 -13 -11 -35 -24 -48 l-24 -23 27 -7 c66 -16 111 -83
114 -172 3 -69 -28 -91 -187 -131 -71 -18 -130 -32 -131 -30 -2 2 -19 75 -39
163 -20 88 -52 212 -71 275 -19 63 -33 115 -32 116 1 1 40 9 87 17 98 18 151
14 196 -14z m-1438 1 c7 0 10 5 7 10 -3 6 -2 10 3 10 16 0 22 -13 12 -25 -19
-22 39 -26 61 -4 24 24 28 24 22 -1 -3 -11 -10 -20 -15 -20 -5 0 -7 -4 -4 -9
4 -5 -4 -7 -16 -3 -16 4 -19 2 -13 -9 5 -9 1 -7 -11 3 -24 21 -60 14 -67 -14
-4 -12 -10 -17 -17 -13 -9 6 -9 9 0 15 8 5 5 9 -9 13 -12 3 -21 1 -21 -4 0 -4
-7 -6 -15 -3 -17 7 -5 23 33 43 13 7 20 17 16 24 -5 9 -3 8 7 0 7 -7 19 -13
27 -13z m295 4 c-3 -8 -12 -13 -20 -10 -11 4 -13 1 -8 -14 4 -12 2 -20 -5 -20
-6 0 -8 5 -5 10 3 6 -1 10 -9 10 -23 0 -29 -19 -11 -36 9 -9 14 -23 11 -31 -4
-8 7 -32 24 -53 16 -21 30 -41 30 -45 0 -9 -27 21 -50 55 -8 12 -22 30 -30 38
-13 14 -13 15 3 9 21 -8 22 0 1 20 -8 9 -12 23 -9 31 3 8 1 19 -6 22 -8 6 -8
9 0 14 6 4 11 2 11 -3 0 -6 5 -11 11 -11 5 0 8 4 4 9 -3 5 7 12 22 14 16 2 31
5 35 6 4 0 5 -6 1 -15z m88 -7 c-10 -9 -11 -8 -5 6 3 10 9 15 12 12 3 -3 0
-11 -7 -18z m2149 -7 c12 -16 19 -30 15 -30 -15 0 -55 34 -55 46 0 23 17 16
40 -16z m-2672 -5 c-6 -14 -15 -25 -20 -25 -9 0 -4 14 15 38 15 19 18 14 5
-13z m1217 5 c4 -8 6 -17 5 -19 -1 -2 4 -7 12 -12 10 -6 10 -11 0 -21 -9 -9
-12 -8 -12 5 0 10 -11 29 -24 42 -21 21 -21 23 -5 22 10 -1 21 -8 24 -17z
m-1354 -7 c1 -10 2 -30 2 -45 1 -34 4 -34 34 -6 13 12 26 18 30 14 4 -4 1 -11
-7 -17 -13 -8 -13 -10 0 -20 12 -8 9 -9 -10 -4 l-25 6 25 -21 c20 -18 21 -21
5 -15 -61 22 -61 12 0 -20 39 -20 58 -34 43 -31 -14 3 -28 1 -30 -5 -2 -6 -27
1 -61 17 -32 14 -61 24 -64 21 -3 -3 11 -13 31 -21 42 -18 48 -29 10 -20 -19
5 -25 4 -20 -5 4 -6 13 -11 21 -11 7 0 33 -12 56 -26 24 -14 37 -24 29 -21
-23 7 -194 79 -199 83 -2 2 4 10 13 19 9 9 16 20 16 24 0 5 12 6 28 4 l27 -5
-23 17 c-12 9 -25 14 -30 11 -4 -2 -16 2 -27 11 -19 13 -18 14 10 8 27 -6 28
-5 13 8 -24 19 -23 30 2 17 12 -6 20 -7 20 -1 0 5 -6 12 -12 15 -13 6 -1 4 54
-9 24 -6 26 -4 24 19 -2 14 1 26 5 26 5 0 10 -8 10 -17z m467 -38 c-3 -3 -9 2
-12 12 -6 14 -5 15 5 6 7 -7 10 -15 7 -18z m864 -12 c9 -21 42 -96 73 -168 64
-147 109 -265 118 -311 6 -31 5 -32 -55 -49 -34 -9 -67 -19 -74 -22 -7 -2 -16
14 -23 42 -10 42 -14 46 -34 41 -12 -3 -28 -6 -35 -6 -10 0 -13 -14 -10 -52
l3 -52 -45 -17 c-25 -9 -59 -20 -77 -23 l-31 -7 -6 53 c-3 29 -7 168 -8 309
l-3 256 80 21 c109 28 110 28 127 -15z m1528 -18 c23 -28 0 -30 -28 -2 -15 15
-36 35 -47 43 -11 8 -2 6 21 -5 22 -11 46 -27 54 -36z m-2536 20 c3 -10 0 -12
-12 -8 -15 6 -16 5 -2 -12 14 -17 14 -18 -7 -7 -29 16 -38 33 -23 42 16 10 37
3 44 -15z m106 -10 l25 -30 -27 24 c-16 14 -28 29 -28 34 0 6 1 8 3 6 1 -2 13
-17 27 -34z m118 0 c-3 -3 -9 2 -12 12 -6 14 -5 15 5 6 7 -7 10 -15 7 -18z
m67 8 c5 -14 4 -15 -6 -6 -9 9 -16 10 -26 2 -9 -8 -13 -8 -13 -1 0 9 15 19 31
21 4 1 10 -7 14 -16z m69 -9 c3 -8 2 -12 -4 -9 -6 3 -10 10 -10 16 0 14 7 11
14 -7z m-469 -4 c3 -5 2 -10 -4 -10 -5 0 -13 5 -16 10 -3 6 -2 10 4 10 5 0 13
-4 16 -10z m1168 -5 c-3 -9 -8 -14 -10 -11 -3 3 -2 9 2 15 9 16 15 13 8 -4z
m-1087 -16 c19 -22 19 -22 -3 -10 -24 12 -39 31 -25 31 5 0 17 -10 28 -21z
m2461 -1 c-3 -8 -6 -5 -6 6 -1 11 2 17 5 13 3 -3 4 -12 1 -19z m-2892 2 c3 -5
1 -10 -4 -10 -6 0 -11 5 -11 10 0 6 2 10 4 10 3 0 8 -4 11 -10z m341 -5 c10
-8 15 -14 9 -14 -5 0 -19 6 -29 14 -11 8 -15 15 -10 15 6 0 19 -7 30 -15z m70
-16 c3 -6 -5 -3 -20 6 -14 10 -26 19 -26 22 0 7 39 -17 46 -28z m378 -9 c-3
-2 -9 2 -14 10 -8 13 -10 13 -10 1 0 -8 -2 -12 -5 -9 -3 3 -3 13 1 22 6 15 7
15 19 -1 8 -10 11 -20 9 -23z m-554 20 c0 -5 -2 -10 -4 -10 -3 0 -8 5 -11 10
-3 6 -1 10 4 10 6 0 11 -4 11 -10z m720 -12 c0 6 5 12 11 12 8 0 8 -5 -1 -15
-13 -16 -30 -11 -30 8 0 7 4 6 10 -3 6 -10 10 -11 10 -2z m195 -10 c12 -55 85
-543 85 -568 0 -10 -120 -51 -130 -45 -4 3 -27 50 -50 105 -24 55 -45 98 -47
96 -2 -2 3 -30 11 -62 8 -33 16 -83 18 -113 l3 -55 -73 -27 -72 -27 -4 22 c-8
43 -45 589 -41 596 7 11 96 41 105 35 4 -3 27 -50 50 -105 24 -55 45 -98 47
-96 2 2 -3 28 -11 57 -9 30 -19 80 -24 111 l-9 57 56 20 c73 25 80 25 86 -1z
m827 -34 c-5 -9 -8 -1 -9 23 -1 33 0 35 8 15 5 -13 5 -30 1 -38z m1000 -10
c41 -47 46 -59 57 -130 6 -43 16 -81 21 -84 6 -3 7 -24 2 -48 l-7 -43 -53 54
-54 54 29 23 c26 21 22 22 -22 4 -11 -4 -15 0 -15 17 0 13 -3 35 -7 48 -5 19
-3 22 8 16 11 -7 12 -6 3 6 -13 16 -28 157 -15 143 5 -5 29 -32 53 -60z
m-2957 46 c-3 -5 -11 -10 -16 -10 -6 0 -7 5 -4 10 3 6 11 10 16 10 6 0 7 -4 4
-10z m370 0 c3 -6 -1 -7 -9 -4 -18 7 -21 14 -7 14 6 0 13 -4 16 -10z m351 1
c-4 -5 0 -11 6 -14 7 -2 9 -8 5 -13 -4 -5 -12 -2 -17 6 -13 20 -12 30 1 30 5
0 8 -4 5 -9z m119 -1 c3 -5 1 -10 -4 -10 -6 0 -11 5 -11 10 0 6 2 10 4 10 3 0
8 -4 11 -10z m2135 -8 c13 -10 21 -26 19 -37 -3 -15 -9 -12 -32 18 -30 39 -24
49 13 19z m-2625 -12 c3 -6 -1 -7 -9 -4 -18 7 -21 14 -7 14 6 0 13 -4 16 -10z
m89 -16 c7 -19 2 -18 -19 6 -16 17 -16 20 -3 15 9 -4 19 -13 22 -21z m774
-136 c0 -90 -2 -149 -5 -133 -2 17 -11 75 -19 129 -11 79 -12 106 -2 133 7 18
15 33 19 33 4 0 7 -73 7 -162z m-878 131 l25 -20 -32 16 c-18 8 -33 18 -33 20
0 10 16 4 40 -16z m174 -6 c11 -13 16 -23 13 -23 -10 0 -37 31 -37 42 0 6 1 9
3 7 1 -2 11 -14 21 -26z m21 17 c3 -6 -1 -7 -9 -4 -18 7 -21 14 -7 14 6 0 13
-4 16 -10z m254 -34 c-3 -3 -11 5 -18 17 -13 21 -12 21 5 5 10 -10 16 -20 13
-22z m2241 -3 c0 -32 -5 -28 -14 10 -4 19 -3 26 4 22 5 -3 10 -18 10 -32z
m-3025 7 c3 -5 -1 -10 -9 -10 -8 0 -18 5 -21 10 -3 6 1 10 9 10 8 0 18 -4 21
-10z m315 0 c0 -5 -2 -10 -4 -10 -3 0 -8 5 -11 10 -3 6 -1 10 4 10 6 0 11 -4
11 -10z m-75 -20 c3 -5 -4 -6 -15 -3 -11 3 -22 9 -25 13 -3 5 4 6 15 3 11 -3
22 -9 25 -13z m1725 16 c0 -11 -19 -15 -25 -6 -3 5 1 10 9 10 9 0 16 -2 16 -4z
m-1780 -16 c8 -5 11 -10 5 -10 -5 0 -17 5 -25 10 -8 5 -10 10 -5 10 6 0 17 -5
25 -10z m2120 -10 c12 0 18 -4 15 -10 -3 -5 -17 -10 -30 -10 -13 0 -31 -7 -39
-16 -9 -8 -16 -11 -16 -5 0 5 5 13 11 17 6 3 9 15 6 25 -4 15 -2 17 13 9 10
-6 28 -10 40 -10z m-2213 -5 c20 -8 34 -18 31 -20 -3 -3 -25 4 -49 15 -51 23
-36 27 18 5z m593 0 c11 -13 10 -14 -3 -9 -15 5 -73 -27 -89 -50 -4 -6 -10 -7
-15 -2 -4 4 0 12 10 17 12 7 16 17 11 32 -5 20 -5 20 7 5 13 -16 15 -16 39 2
30 24 25 23 40 5z m107 -7 c-3 -8 -6 -5 -6 6 -1 11 2 17 5 13 3 -3 4 -12 1
-19z m2250 -20 c-3 -7 -5 -2 -5 12 0 14 2 19 5 13 2 -7 2 -19 0 -25z m-2992
12 c3 -5 2 -10 -4 -10 -5 0 -13 5 -16 10 -3 6 -2 10 4 10 5 0 13 -4 16 -10z
m185 -6 c0 -8 -4 -13 -10 -9 -5 3 -3 -6 5 -21 7 -15 11 -33 8 -40 -3 -8 1 -14
10 -14 13 0 14 6 7 30 -6 20 -5 30 2 30 6 0 5 6 -2 16 -12 13 -10 14 14 3 23
-11 25 -14 10 -19 -14 -5 -10 -10 20 -28 32 -19 36 -25 30 -48 -5 -21 -4 -25
6 -19 9 5 11 4 6 -3 -4 -7 -2 -12 5 -12 8 0 8 -4 -2 -16 -12 -14 -14 -14 -21
6 -9 23 -33 24 -59 0 -90 -79 -89 -79 -89 -56 0 8 -7 16 -15 20 -10 4 -14 -1
-12 -16 1 -11 -5 -23 -13 -26 -13 -5 -13 -3 -1 11 12 15 11 17 -3 17 -12 0
-16 -8 -14 -28 1 -21 7 -28 22 -28 13 1 20 -5 19 -14 -6 -40 -32 -142 -38
-148 -4 -4 -4 5 -1 21 3 15 8 37 11 50 5 28 -4 42 -34 52 -17 5 -21 4 -16 -5
5 -9 2 -10 -14 -5 -15 4 -19 3 -16 -7 7 -17 -82 -71 -104 -63 -13 5 -14 7 -1
15 11 7 11 10 2 10 -8 0 -11 9 -8 24 5 30 -3 66 -16 66 -5 0 -6 -4 -3 -10 3
-5 1 -10 -5 -10 -6 0 -8 -5 -3 -12 4 -7 8 -31 8 -52 0 -23 6 -41 14 -44 9 -3
7 -8 -7 -18 -17 -11 -30 -9 -103 17 -46 16 -91 28 -99 26 -17 -4 -46 21 -36
31 12 12 60 9 100 -4 49 -18 57 -12 14 10 -31 16 -31 17 -6 12 22 -5 26 -3 22
9 -4 9 -1 15 7 15 19 0 -11 20 -30 20 -11 0 -11 -3 -1 -15 13 -16 3 -20 -24
-9 -14 5 -14 9 1 35 10 16 22 29 29 29 6 0 16 11 22 24 8 19 7 26 -9 39 -18
16 -18 17 4 41 23 24 24 25 66 10 49 -17 82 -13 39 5 -37 14 -36 22 2 11 18
-5 30 -5 30 1 0 5 -7 9 -15 9 -8 0 -15 5 -15 10 0 13 11 12 31 -3 9 -7 14 -17
12 -23 -2 -6 3 -11 12 -11 8 0 15 4 15 9 0 4 7 8 15 8 31 0 12 -24 -27 -35 -5
-2 -10 -4 -13 -5 -3 -1 -8 -3 -12 -4 -5 -1 -19 -10 -33 -20 l-25 -18 25 7 c31
9 44 9 100 6 41 -3 42 -4 15 -10 l-30 -6 35 -18 c23 -12 27 -17 12 -14 -15 4
-22 1 -19 -6 6 -19 35 -20 53 -3 8 9 12 16 8 16 -3 0 -1 6 5 14 10 11 8 16 -9
21 -12 4 -19 9 -17 12 3 2 15 0 26 -6 17 -9 24 -8 41 9 11 11 26 18 32 14 8
-5 5 -10 -8 -15 -18 -6 -17 -8 6 -17 19 -7 30 -5 46 7 l22 16 -25 3 c-23 3
-23 4 -7 16 17 13 16 14 -6 21 -13 4 -32 17 -42 29 -17 20 -19 20 -29 3 -7
-12 -17 -16 -30 -12 -14 5 -20 2 -18 -7 3 -23 -1 -38 -10 -38 -17 0 2 50 30
77 16 15 29 33 29 40 0 14 56 -2 66 -19 4 -5 -4 -4 -17 2 -17 10 -24 10 -27 1
-2 -6 -9 -11 -17 -11 -7 0 -18 -7 -25 -15 -16 -19 -6 -19 25 1 24 16 51 11 40
-7 -4 -5 7 -17 24 -26 16 -10 32 -27 35 -37 6 -22 18 -15 23 12 1 12 -8 22
-30 31 -29 11 -30 13 -12 21 11 5 15 9 9 9 -14 1 -25 37 -17 57 7 19 23 18 23
-2z m524 -16 c4 -20 37 -552 36 -584 0 -16 -119 -59 -130 -48 -4 5 -22 53 -40
107 -18 54 -34 96 -37 94 -2 -3 1 -33 7 -68 6 -35 10 -89 8 -118 l-3 -55 -69
-28 c-38 -15 -71 -28 -74 -28 -6 0 8 612 14 622 5 8 91 48 103 48 3 0 19 -45
35 -100 16 -56 33 -103 38 -106 5 -3 6 5 3 18 -16 71 -21 109 -20 161 l0 59
55 23 c68 30 69 30 74 3z m-864 -8 c0 -5 -4 -10 -10 -10 -5 0 -10 5 -10 10 0
6 5 10 10 10 6 0 10 -4 10 -10z m215 0 c3 -5 1 -10 -4 -10 -6 0 -11 5 -11 10
0 6 2 10 4 10 3 0 8 -4 11 -10z m-110 -18 c-3 -3 -11 0 -18 7 -9 10 -8 11 6 5
10 -3 15 -9 12 -12z m69 12 c25 -10 19 -25 -7 -19 -16 4 -29 0 -41 -14 -20
-23 -36 -27 -36 -11 0 6 6 10 13 10 7 0 18 9 25 20 13 21 21 24 46 14z m251
-4 c3 -5 1 -10 -4 -10 -6 0 -11 5 -11 10 0 6 2 10 4 10 3 0 8 -4 11 -10z
m2722 -22 c-3 -7 -5 -2 -5 12 0 14 2 19 5 13 2 -7 2 -19 0 -25z m-3160 -6 c-9
-2 -15 -8 -12 -13 4 -5 1 -9 -4 -9 -13 0 -13 3 -5 24 3 9 12 12 22 8 16 -6 15
-7 -1 -10z m2383 -27 c0 -5 -5 -3 -10 5 -5 8 -10 20 -10 25 0 6 5 3 10 -5 5
-8 10 -19 10 -25z m-1463 -22 c-3 -10 -5 -4 -5 12 0 17 2 24 5 18 2 -7 2 -21
0 -30z m-367 -19 c0 -8 -4 -12 -10 -9 -5 3 -10 10 -10 16 0 5 5 9 10 9 6 0 10
-7 10 -16z m2230 2 c0 -2 -7 -7 -16 -10 -8 -3 -12 -2 -9 4 6 10 25 14 25 6z
m-377 -26 c3 -11 1 -18 -4 -14 -5 3 -9 12 -9 20 0 20 7 17 13 -6z m312 0 c-3
-5 -14 -10 -23 -9 -14 0 -13 2 3 9 27 11 27 11 20 0z m-100 -17 c-16 -9 -25
-18 -18 -20 7 -2 9 -12 6 -20 -5 -12 -2 -15 8 -11 17 7 44 -18 29 -27 -6 -4
-8 -11 -5 -16 4 -5 2 -9 -4 -9 -5 0 -8 -8 -6 -18 2 -11 -3 -19 -11 -20 -8 -1
-21 -3 -29 -4 -8 -1 -12 -5 -10 -9 3 -4 2 -15 -1 -24 -5 -12 -14 -14 -38 -9
-34 8 -79 7 -111 -2 -14 -4 -9 4 15 25 19 16 40 29 45 27 6 -2 12 5 12 15 2
26 -7 24 -44 -8 -68 -60 -84 -72 -103 -78 -23 -7 -24 -5 -8 30 6 14 17 25 24
25 6 0 14 7 18 15 3 8 1 15 -4 15 -6 0 -10 -4 -10 -10 0 -5 -7 -10 -15 -10 -8
0 -15 -4 -15 -9 0 -6 -9 -9 -20 -8 -14 1 -18 6 -14 19 4 14 1 16 -13 11 -13
-4 -9 3 11 25 32 35 44 36 26 3 -6 -12 -7 -21 -1 -21 5 0 12 13 16 30 4 16 11
33 17 37 7 4 9 0 5 -9 -4 -11 1 -18 14 -21 10 -3 19 -1 19 4 0 5 -4 9 -9 9 -5
0 -11 9 -14 21 -3 12 -3 18 0 15 4 -3 12 -1 19 5 7 6 38 12 68 12 29 1 52 5
50 9 -2 3 19 11 48 16 77 14 87 13 53 -5z m390 -72 c-10 -9 -129 -50 -134 -46
-2 3 9 9 25 15 54 19 104 43 100 47 -2 2 -30 -5 -62 -16 -32 -12 -60 -19 -62
-16 -3 2 8 9 24 15 64 23 84 33 80 37 -3 3 -25 -2 -50 -10 -60 -20 -59 -12 0
14 26 11 45 22 42 24 -3 3 -20 -1 -39 -9 -48 -19 -85 -30 -77 -22 3 4 32 18
64 31 l58 24 18 -41 c10 -23 16 -44 13 -47z m-2455 37 c0 -4 -7 -8 -15 -8 -21
0 -19 -18 3 -23 16 -4 16 -5 -1 -6 -21 -1 -32 22 -21 47 4 9 6 22 5 27 -1 6 6
1 14 -9 8 -11 15 -23 15 -28z m-69 -10 c0 -51 3 -81 30 -298 11 -91 19 -185
17 -208 -3 -44 -3 -44 -70 -72 l-68 -29 0 44 c0 48 -5 51 -44 34 -19 -9 -25
-21 -30 -63 l-7 -52 -66 -29 c-37 -17 -71 -32 -76 -34 -6 -2 -7 16 -3 45 8 60
134 595 142 603 9 10 158 99 167 100 4 1 7 -18 8 -41z m2179 38 c0 -2 -7 -7
-16 -10 -8 -3 -12 -2 -9 4 6 10 25 14 25 6z m100 -16 c-8 -5 -19 -10 -25 -10
-5 0 -3 5 5 10 8 5 20 10 25 10 6 0 3 -5 -5 -10z m-596 -15 c-4 -8 -8 -15 -10
-15 -2 0 -4 7 -4 15 0 8 4 15 10 15 5 0 7 -7 4 -15z m501 5 c-3 -5 -12 -10
-18 -10 -7 0 -6 4 3 10 19 12 23 12 15 0z m-1738 -32 c-3 -7 -5 -2 -5 12 0 14
2 19 5 13 2 -7 2 -19 0 -25z m1404 1 c-24 -22 -37 -20 -28 6 4 8 16 15 29 15
l22 0 -23 -21z m494 11 c-3 -5 -12 -10 -18 -10 -7 0 -6 4 3 10 19 12 23 12 15
0z m-2975 -16 c0 -8 -5 -12 -10 -9 -6 4 -8 11 -5 16 9 14 15 11 15 -7z m2880
12 c0 -3 -4 -8 -10 -11 -5 -3 -10 -1 -10 4 0 6 5 11 10 11 6 0 10 -2 10 -4z
m-550 -26 c0 -5 -2 -10 -4 -10 -3 0 -8 5 -11 10 -3 6 -1 10 4 10 6 0 11 -4 11
-10z m-1253 -22 c-3 -8 -6 -5 -6 6 -1 11 2 17 5 13 3 -3 4 -12 1 -19z m1883
18 c0 -2 -7 -7 -16 -10 -8 -3 -12 -2 -9 4 6 10 25 14 25 6z m219 0 c-2 -2 -29
-14 -59 -26 -30 -12 -50 -17 -45 -11 6 6 28 17 50 25 41 15 62 19 54 12z
m-209 -26 c-8 -5 -19 -10 -25 -10 -5 0 -3 5 5 10 8 5 20 10 25 10 6 0 3 -5 -5
-10z m220 2 c0 -9 -129 -56 -136 -50 -3 4 92 44 134 57 1 1 2 -2 2 -7z m-2485
-22 c3 -5 1 -10 -4 -10 -6 0 -11 5 -11 10 0 6 2 10 4 10 3 0 8 -4 11 -10z
m2225 6 c0 -2 -9 -6 -20 -9 -11 -3 -18 -1 -14 4 5 9 34 13 34 5z m-800 -16 c0
-5 -2 -10 -4 -10 -3 0 -8 5 -11 10 -3 6 -1 10 4 10 6 0 11 -4 11 -10z m905 0
c-3 -5 -11 -10 -16 -10 -6 0 -7 5 -4 10 3 6 11 10 16 10 6 0 7 -4 4 -10z
m-1297 -69 c12 -26 13 -36 4 -39 -13 -4 -17 -31 -4 -33 48 -6 144 -11 217 -10
68 0 94 -4 107 -16 14 -13 20 -13 33 -3 13 11 14 10 9 -4 -7 -19 -35 -21 -51
-5 -8 8 -67 12 -171 13 -88 0 -155 -2 -149 -6 7 -4 20 -8 29 -8 9 0 33 -10 53
-21 l36 -22 -26 -27 c-24 -25 -90 -51 -136 -55 -10 -1 -24 -7 -33 -14 -11 -9
-16 -10 -16 -2 0 6 5 11 10 11 6 0 10 7 10 16 0 8 4 13 8 10 5 -3 8 3 8 12 0
44 5 72 12 71 18 -3 26 2 14 10 -11 7 -9 18 12 59 23 46 24 52 9 60 -9 5 -17
20 -18 33 -3 31 8 50 13 24 2 -11 11 -35 20 -54z m706 54 c3 -8 12 -15 21 -15
21 0 19 -16 -5 -40 -18 -18 -40 -27 -40 -15 0 2 5 15 11 29 9 20 9 29 -1 41
-7 8 -8 15 -2 15 5 0 12 -7 16 -15z m706 0 c-14 -8 -32 -14 -40 -14 -8 0 -1 7
15 14 39 18 57 18 25 0z m-2795 -67 c-16 -85 -27 -103 -90 -143 -30 -19 -56
-39 -59 -44 -8 -13 -49 -251 -44 -256 2 -3 34 11 71 31 l67 35 0 -28 c0 -15
-3 -52 -7 -81 l-6 -54 -100 -49 c-176 -87 -198 -69 -157 131 52 259 80 339
137 392 36 34 186 136 194 132 3 -2 1 -32 -6 -66z m732 40 c-3 -8 -6 -5 -6 6
-1 11 2 17 5 13 3 -3 4 -12 1 -19z m1045 -10 c-8 -8 -9 -4 -5 13 4 13 8 18 11
10 2 -7 -1 -18 -6 -23z m1009 6 c-35 -13 -66 -22 -68 -20 -6 5 97 45 117 45 8
0 -14 -11 -49 -25z m-911 7 c0 -5 -7 -14 -15 -21 -10 -9 -15 -9 -15 -1 0 6 5
11 11 11 5 0 7 5 4 10 -3 6 -1 10 4 10 6 0 11 -4 11 -9z m55 -1 c3 -5 1 -10
-4 -10 -6 0 -11 5 -11 10 0 6 2 10 4 10 3 0 8 -4 11 -10z m790 0 c-3 -5 -12
-10 -18 -10 -7 0 -6 4 3 10 19 12 23 12 15 0z m-1025 -10 c0 -5 -2 -10 -4 -10
-3 0 -8 5 -11 10 -3 6 -1 10 4 10 6 0 11 -4 11 -10z m30 0 c0 -5 -4 -10 -10
-10 -5 0 -10 5 -10 10 0 6 5 10 10 10 6 0 10 -4 10 -10z m940 -10 c0 -5 -5
-10 -11 -10 -5 0 -7 5 -4 10 3 6 8 10 11 10 2 0 4 -4 4 -10z m145 -6 c-62 -24
-98 -34 -103 -30 -6 6 100 45 123 45 11 0 2 -7 -20 -15z m-3090 -14 c35 -17
36 -19 10 -13 -45 9 -95 31 -70 31 11 0 38 -8 60 -18z m1775 10 c0 -5 -7 -10
-15 -10 -8 0 -22 -14 -30 -31 -19 -35 -29 -33 -20 3 4 14 18 29 33 35 15 6 28
11 30 12 1 1 2 -3 2 -9z m24 -12 c-8 -28 -12 -33 -20 -25 -4 4 -2 13 4 20 7 8
9 17 5 20 -3 4 -1 7 6 7 8 0 10 -8 5 -22z m-1817 -19 c62 -20 80 -21 75 -6 -3
9 12 9 21 0 4 -3 -1 -12 -10 -18 -14 -10 -30 -8 -84 10 -38 13 -76 29 -86 35
-17 11 -16 11 2 5 11 -4 48 -16 82 -26z m636 -27 c1 -29 -1 -52 -5 -52 -4 0
-8 26 -8 57 0 69 9 66 13 -5z m2011 37 c38 -30 43 -47 61 -220 29 -263 20
-279 -183 -353 -70 -25 -133 -47 -141 -48 -12 -2 -17 25 -28 137 -7 77 -22
205 -33 284 -11 79 -18 146 -15 150 13 13 232 69 271 70 28 1 50 -6 68 -20z
m516 10 c11 -8 12 -12 3 -16 -10 -3 -10 -10 -2 -25 16 -29 7 -30 -20 -2 -13
13 -18 24 -11 24 7 0 10 7 6 15 -6 17 3 19 24 4z m-200 -3 c0 -2 -7 -7 -16
-10 -8 -3 -12 -2 -9 4 6 10 25 14 25 6z m151 -18 c-4 -13 -24 -27 -46 -35 -49
-17 -59 -8 -14 11 24 11 28 15 14 16 -18 1 -17 2 5 15 37 21 51 19 41 -7z
m-3201 2 c8 -5 11 -10 5 -10 -5 0 -17 5 -25 10 -8 5 -10 10 -5 10 6 0 17 -5
25 -10z m1810 4 c0 -7 -27 -34 -34 -34 -4 0 -1 9 6 20 12 19 28 27 28 14z m60
-1 c0 -14 -19 -38 -25 -32 -8 8 5 39 16 39 5 0 9 -3 9 -7z m-1799 -25 c22 -6
39 -15 39 -20 0 -11 -33 -2 -70 18 -31 17 -19 18 31 2z m1659 7 c0 -3 -14 -35
-30 -71 -18 -38 -35 -62 -41 -58 -7 4 -7 9 -2 13 14 9 24 41 13 41 -6 0 -10
-7 -10 -15 0 -8 -5 -15 -11 -15 -6 0 -9 7 -5 15 3 9 0 15 -9 15 -8 0 -12 -6
-9 -13 3 -8 -3 -20 -12 -28 -10 -8 -15 -9 -12 -4 9 16 -10 55 -27 55 -36 0 -9
18 63 42 83 29 92 31 92 23z m155 -5 c3 -5 1 -10 -4 -10 -6 0 -11 5 -11 10 0
6 2 10 4 10 3 0 8 -4 11 -10z m425 0 c0 -5 -2 -10 -4 -10 -3 0 -8 5 -11 10 -3
6 -1 10 4 10 6 0 11 -4 11 -10z m817 4 c-3 -3 -12 -4 -19 -1 -8 3 -5 6 6 6 11
1 17 -2 13 -5z m-3090 -21 c29 -9 53 -21 53 -26 0 -9 -12 -6 -85 22 -62 25
-41 27 32 4z m3043 7 c-8 -5 -19 -10 -25 -10 -5 0 -3 5 5 10 8 5 20 10 25 10
6 0 3 -5 -5 -10z m125 -23 c-9 -14 -24 -28 -33 -32 -13 -5 -13 -2 3 15 10 11
14 20 9 20 -5 0 0 7 10 15 26 20 31 12 11 -18z m-3206 2 c17 -6 31 -15 31 -20
0 -5 -15 -2 -32 7 -53 27 -53 32 1 13z m146 1 c3 -5 2 -10 -4 -10 -5 0 -13 5
-16 10 -3 6 -2 10 4 10 5 0 13 -4 16 -10z m3008 -6 c-7 -3 -11 -17 -9 -32 2
-15 1 -21 -1 -13 -4 12 -6 12 -13 0 -5 -7 -12 -10 -16 -6 -4 3 -1 13 6 22 13
16 10 18 -14 9 -8 -3 -13 -11 -10 -18 3 -7 -10 -17 -29 -24 -52 -19 -66 -13
-22 9 35 18 36 19 10 14 -43 -9 -26 2 36 25 46 17 97 28 62 14z m-3045 -60 c2
-1 -1 -11 -8 -21 -10 -16 -11 -16 -6 0 3 11 0 17 -9 17 -11 0 -12 -5 -5 -26
12 -31 3 -74 -15 -74 -7 0 -15 -5 -17 -11 -3 -10 -118 33 -118 45 0 3 25 -4
55 -14 31 -11 53 -15 50 -10 -4 6 -10 10 -14 10 -15 0 -83 31 -79 36 3 2 20
-2 39 -10 45 -18 97 -30 84 -19 -5 5 -36 17 -69 28 -32 11 -54 21 -48 23 5 1
26 -4 46 -12 20 -8 36 -12 36 -8 0 4 -18 15 -40 24 -34 14 -40 21 -40 47 l0
30 78 -26 c42 -14 79 -27 80 -29z m3159 24 c-3 -7 -5 -2 -5 12 0 14 2 19 5 13
2 -7 2 -19 0 -25z m-3148 -4 c9 -10 -53 6 -63 17 -6 5 4 5 24 -1 18 -5 35 -12
39 -16z m270 -8 c-7 -14 -16 -26 -20 -26 -5 0 0 13 9 29 20 36 27 34 11 -3z
m1971 4 c0 -5 -5 -10 -11 -10 -5 0 -7 5 -4 10 3 6 8 10 11 10 2 0 4 -4 4 -10z
m479 -35 c0 -5 -6 -1 -14 9 -8 11 -15 24 -15 30 0 5 7 1 15 -10 8 -10 14 -23
14 -29z m-1369 25 c0 -5 -4 -10 -10 -10 -5 0 -10 5 -10 10 0 6 5 10 10 10 6 0
10 -4 10 -10z m729 -64 c6 -41 18 -134 26 -207 9 -73 17 -135 20 -137 2 -2 34
6 70 18 36 12 69 19 73 15 4 -4 7 -41 7 -82 l0 -75 -147 -53 -147 -52 -5 41
c-3 23 -17 142 -31 266 -14 124 -28 241 -31 261 l-6 36 68 20 c38 12 74 21 80
22 7 1 16 -30 23 -73z m942 -7 c7 -4 4 -9 -6 -12 -9 -4 -13 -3 -10 3 3 6 1 10
-4 10 -6 0 -11 7 -11 15 0 11 -5 12 -26 5 -16 -7 -23 -7 -19 0 3 6 13 10 21
10 8 0 14 5 14 11 0 6 -9 8 -20 4 -28 -9 -25 4 2 14 20 7 25 4 36 -23 7 -16
18 -33 23 -37z m-791 57 c0 -3 -4 -8 -10 -11 -5 -3 -10 -1 -10 4 0 6 5 11 10
11 6 0 10 -2 10 -4z m830 -6 c0 -5 -5 -10 -11 -10 -5 0 -7 5 -4 10 3 6 8 10
11 10 2 0 4 -4 4 -10z m-1540 -10 c0 -5 -5 -10 -11 -10 -5 0 -7 -4 -4 -10 3
-5 1 -10 -4 -10 -13 0 -13 3 -5 24 7 18 24 22 24 6z m1358 -15 c-3 -3 -9 2
-12 12 -6 14 -5 15 5 6 7 -7 10 -15 7 -18z m-707 6 c3 -1 4 -12 1 -26 -2 -14
0 -25 4 -25 5 0 10 -11 10 -24 2 -32 35 -75 57 -76 14 0 17 -5 12 -20 -5 -15
-3 -18 9 -14 12 4 16 0 17 -17 1 -13 3 -42 4 -64 2 -22 1 -33 -2 -25 -3 8 -12
21 -21 28 -10 7 -11 12 -4 12 7 0 12 7 12 15 0 8 -4 15 -10 15 -5 0 -10 -5
-10 -11 0 -8 -5 -7 -16 2 -10 8 -13 21 -9 37 4 17 -2 34 -19 57 -14 18 -31 54
-38 79 -11 40 -15 45 -35 40 -13 -4 -23 -2 -23 3 0 19 9 21 61 14z m-631 -6
c0 -3 -6 -15 -12 -26 -10 -17 -10 -23 0 -26 16 -6 15 -20 -2 -26 -10 -4 -13
-1 -10 7 3 8 1 17 -4 20 -11 7 7 56 21 56 4 0 7 -2 7 -5z m-160 -9 c0 -2 -7
-7 -16 -10 -8 -3 -12 -2 -9 4 6 10 25 14 25 6z m1400 -41 c0 -13 6 -22 15 -22
16 0 16 27 0 39 -6 5 -3 8 7 8 9 0 19 -4 22 -9 3 -4 22 -7 43 -5 36 3 37 2 11
-7 -23 -9 -26 -14 -18 -28 5 -10 7 -21 3 -24 -3 -4 0 -13 6 -21 9 -11 9 -20 2
-34 -6 -11 -9 -21 -8 -23 1 -3 -1 -2 -5 1 -4 3 -8 27 -9 53 -2 50 -13 67 -32
48 -6 -6 -18 -11 -27 -11 -11 0 -16 -10 -18 -32 -2 -26 0 -30 9 -18 10 13 10
13 6 0 -11 -31 -32 -70 -38 -70 -4 0 -9 7 -13 15 -3 8 0 14 6 12 7 -1 13 7 15
18 3 16 2 17 -6 5 -17 -25 -14 12 4 46 17 33 20 70 5 79 -5 3 -10 11 -10 17 0
7 6 6 15 -2 8 -7 15 -22 15 -35z m310 41 c0 -3 -4 -8 -10 -11 -5 -3 -10 -1
-10 4 0 6 5 11 10 11 6 0 10 -2 10 -4z m-240 -10 c0 -3 -4 -8 -10 -11 -5 -3
-10 -1 -10 4 0 6 5 11 10 11 6 0 10 -2 10 -4z m-2683 -21 c0 -8 -6 -15 -13
-15 -8 0 -11 6 -8 15 4 8 9 15 13 15 4 0 8 -7 8 -15z m81 -10 c-3 -3 -9 2 -12
12 -6 14 -5 15 5 6 7 -7 10 -15 7 -18z m1302 15 c0 -5 -4 -10 -10 -10 -5 0
-10 5 -10 10 0 6 5 10 10 10 6 0 10 -4 10 -10z m1395 0 c-27 -12 -43 -12 -25
0 8 5 22 9 30 9 10 0 8 -3 -5 -9z m-1875 -20 c-13 -8 -12 -10 2 -10 10 0 22
-9 28 -20 9 -17 8 -19 -7 -13 -16 6 -16 4 2 -18 11 -13 24 -27 28 -30 4 -3 3
-16 -2 -30 -8 -21 -16 -12 -12 13 0 4 -9 12 -22 18 -21 11 -21 10 -3 -4 11 -9
15 -16 9 -16 -13 0 -39 24 -45 40 -2 6 -12 12 -21 14 -21 3 -37 24 -36 46 0 8
4 5 9 -7 5 -13 16 -23 23 -23 8 0 20 -7 27 -15 7 -8 20 -15 28 -15 12 0 13 3
5 11 -6 6 -9 18 -6 25 3 8 -1 14 -11 14 -19 0 -22 26 -3 33 18 7 23 -3 7 -13z
m2050 -17 c0 -7 -7 -13 -15 -13 -15 0 -21 31 -8 43 8 8 23 -12 23 -30z m-1299
-11 c42 -47 64 -229 34 -286 -15 -28 -14 -33 19 -95 18 -36 37 -85 41 -107 l6
-42 -73 -24 -74 -25 -33 93 c-18 52 -36 92 -40 89 -4 -2 -2 -46 5 -97 6 -51 9
-96 5 -100 -4 -4 -39 -19 -79 -32 l-71 -25 -6 32 c-16 97 -65 570 -60 575 4 4
54 24 113 44 128 45 173 45 213 0z m1144 28 c-11 -5 -27 -9 -35 -9 -9 0 -8 4
5 9 11 5 27 9 35 9 9 0 8 -4 -5 -9z m-1620 -10 c3 -5 1 -10 -4 -10 -6 0 -11 5
-11 10 0 6 2 10 4 10 3 0 8 -4 11 -10z m1565 6 c0 -2 -9 -6 -20 -9 -11 -3 -18
-1 -14 4 5 9 34 13 34 5z m-2995 -30 c21 -8 33 -16 27 -20 -5 -3 -8 -15 -5
-26 7 -26 -7 -25 -82 5 -68 27 -63 33 8 9 26 -9 52 -13 59 -11 7 3 4 6 -7 7
-11 0 -31 7 -45 15 l-25 15 30 -6 c27 -5 26 -3 -10 15 -44 22 -19 20 50 -3z
m228 4 c-3 -11 -7 -20 -9 -20 -2 0 -4 9 -4 20 0 11 4 20 9 20 5 0 7 -9 4 -20z
m97 10 c0 -5 -5 -10 -11 -10 -5 0 -7 5 -4 10 3 6 8 10 11 10 2 0 4 -4 4 -10z
m2745 0 c-11 -5 -31 -8 -45 -8 -23 0 -22 1 5 8 42 11 65 11 40 0z m-3150 -18
c-3 -3 -11 0 -18 7 -9 10 -8 11 6 5 10 -3 15 -9 12 -12z m1305 -2 c0 -5 -4
-10 -10 -10 -5 0 -10 5 -10 10 0 6 5 10 10 10 6 0 10 -4 10 -10z m1922 -54
c-4 -14 -11 -26 -17 -25 -5 0 -11 -9 -13 -21 -2 -12 -11 -20 -23 -20 -11 0
-17 4 -14 10 4 7 -2 7 -18 1 -22 -8 -24 -7 -20 10 6 22 -13 49 -34 49 -12 0
-13 -9 -9 -42 l7 -43 -16 28 c-11 19 -13 32 -6 46 6 10 8 21 5 23 -2 3 12 8
33 11 20 4 39 4 42 2 2 -3 -3 -5 -12 -5 -22 0 -21 -12 1 -40 15 -19 22 -21 38
-12 14 9 15 12 4 12 -10 1 -8 4 5 9 11 5 21 12 21 17 1 5 5 20 9 33 8 24 8 24
16 4 4 -12 5 -33 1 -47z m-2132 43 c0 -5 4 -7 10 -4 6 3 7 -1 4 -9 -3 -9 -10
-16 -16 -16 -5 0 -6 5 -3 10 3 6 1 10 -4 10 -6 0 -11 5 -11 10 0 6 5 10 10 10
6 0 10 -5 10 -11z m1340 -10 c0 -9 3 -26 6 -36 5 -17 5 -17 -6 0 -6 9 -19 17
-28 18 -9 0 -12 3 -5 5 7 3 10 11 7 18 -3 7 2 13 11 13 8 0 15 -8 15 -18z
m690 11 c-20 -13 -33 -13 -25 0 3 6 14 10 23 10 15 0 15 -2 2 -10z m-2793 -16
c-3 -3 -12 -4 -19 -1 -8 3 -5 6 6 6 11 1 17 -2 13 -5z m39 -9 c-3 -8 -1 -15 4
-15 6 0 10 -7 10 -15 0 -8 -6 -15 -14 -15 -8 0 -12 9 -11 23 4 34 5 37 11 37
3 0 4 -7 0 -15z m672 -4 c2 -6 -4 -11 -14 -11 -9 0 -23 -8 -31 -17 -13 -17
-14 -16 -10 4 3 15 1 20 -9 16 -10 -4 -11 -10 -4 -23 12 -23 13 -30 2 -30 -5
0 -14 10 -21 23 l-11 22 6 -22 c6 -27 -11 -31 -21 -6 -3 10 -1 19 6 22 6 2 19
11 28 21 18 18 73 20 79 1z m372 9 c0 -5 -2 -10 -4 -10 -3 0 -8 5 -11 10 -3 6
-1 10 4 10 6 0 11 -4 11 -10z m-1344 -42 c3 -4 -17 0 -45 9 -28 9 -51 20 -51
24 0 7 84 -22 96 -33z m1008 26 c9 -24 7 -31 -4 -14 -9 13 -11 13 -20 0 -11
-17 -13 -10 -4 14 3 9 10 16 14 16 4 0 11 -7 14 -16z m-744 -25 c0 -22 -7 -32
-25 -41 -32 -14 -36 -10 -29 33 5 27 11 34 30 35 20 2 24 -3 24 -27z m1286 22
c-8 -12 -66 -22 -80 -13 -6 4 9 10 34 13 25 3 46 7 48 7 2 1 1 -2 -2 -7z
m-501 -11 c3 -5 2 -10 -4 -10 -5 0 -13 5 -16 10 -3 6 -2 10 4 10 5 0 13 -4 16
-10z m275 0 c0 -5 -4 -10 -10 -10 -5 0 -10 5 -10 10 0 6 5 10 10 10 6 0 10 -4
10 -10z m-1390 -18 c-9 -3 -5 -9 11 -19 14 -8 16 -12 6 -9 -10 3 -23 6 -28 6
-5 0 -9 9 -9 20 0 14 5 18 17 13 13 -5 14 -8 3 -11z m1337 -4 c-3 -8 -6 -5 -6
6 -1 11 2 17 5 13 3 -3 4 -12 1 -19z m-1250 -25 c-3 -3 -14 0 -24 6 -17 10
-17 10 0 11 9 0 18 6 18 13 1 6 3 4 6 -6 3 -10 2 -21 0 -24z m831 12 c-3 -3
-9 2 -12 12 -6 14 -5 15 5 6 7 -7 10 -15 7 -18z m-26 -2 c0 -10 0 -26 0 -36
-1 -10 2 -16 6 -13 10 6 8 -61 -2 -71 -7 -8 -26 15 -26 32 0 6 4 3 10 -5 5 -8
12 -11 16 -7 4 3 1 13 -6 22 -7 8 -9 15 -4 15 5 0 2 5 -6 11 -11 8 -12 12 -2
16 6 2 12 9 12 15 0 6 -6 6 -15 -2 -9 -8 -15 -9 -15 -2 0 6 5 14 10 17 6 4 8
11 5 16 -4 5 -1 9 4 9 6 0 12 -8 13 -17z m118 7 c0 -5 -4 -10 -10 -10 -5 0
-10 5 -10 10 0 6 5 10 10 10 6 0 10 -4 10 -10z m30 0 c0 -5 -4 -10 -10 -10 -5
0 -10 5 -10 10 0 6 5 10 10 10 6 0 10 -4 10 -10z m36 -16 l7 -26 19 29 c18 26
19 27 12 3 -3 -13 -13 -30 -20 -37 -11 -12 -14 -10 -20 12 -3 14 -11 25 -16
25 -6 0 -8 -9 -5 -21 7 -25 -1 -49 -15 -49 -7 0 -6 5 1 13 7 10 7 17 0 24 -8
8 -7 17 3 32 17 28 26 27 34 -5z m24 16 c0 -5 -4 -10 -10 -10 -5 0 -10 5 -10
10 0 6 5 10 10 10 6 0 10 -4 10 -10z m454 -22 l32 -33 22 -205 c27 -247 27
-257 2 -297 -22 -37 -54 -56 -143 -83 -112 -35 -173 -19 -196 53 -15 48 -44
371 -39 428 7 69 42 103 144 139 107 39 138 38 178 -2z m-700 7 c-6 -16 -24
-21 -24 -7 0 11 11 22 21 22 5 0 6 -7 3 -15z m-59 -34 c-3 -5 0 -11 6 -13 5
-2 7 -11 4 -21 -9 -22 -26 -22 -18 1 5 13 3 15 -7 5 -10 -9 -16 -9 -26 2 -18
18 -18 35 1 35 9 0 18 7 22 16 5 15 7 15 15 0 5 -9 7 -20 3 -25z m2236 -4 c-8
-8 -11 -3 -11 19 1 25 2 27 11 11 8 -14 8 -22 0 -30z m-3021 23 c12 -8 12 -10
1 -10 -11 0 -11 -3 -1 -15 7 -8 8 -15 3 -15 -5 0 -15 11 -21 25 -12 26 -7 31
18 15z m70 0 c13 -9 13 -10 0 -10 -8 0 -22 5 -30 10 -13 9 -13 10 0 10 8 0 22
-5 30 -10z m751 -17 c7 -20 6 -28 -3 -35 -7 -4 -9 -8 -4 -8 12 0 -14 -30 -26
-30 -6 0 -4 7 3 16 16 19 19 66 4 76 -6 5 -5 8 3 8 7 0 17 -12 23 -27z m116
15 c2 6 14 12 26 11 l22 0 -21 -9 c-25 -10 -38 -37 -21 -43 8 -2 6 -10 -7 -22
-18 -19 -18 -19 -11 4 4 13 3 21 -1 18 -5 -3 -9 8 -10 25 -1 21 2 26 8 16 7
-10 11 -10 15 0z m66 -8 c-3 -11 -9 -20 -14 -20 -11 0 -11 3 -3 24 9 23 23 20
17 -4z m617 10 c0 -5 -4 -10 -10 -10 -5 0 -10 5 -10 10 0 6 5 10 10 10 6 0 10
-4 10 -10z m-766 -26 c8 -21 8 -24 -5 -24 -5 0 -7 5 -4 10 3 6 1 10 -4 10 -6
0 -11 5 -11 10 0 16 17 12 24 -6z m266 6 c0 -5 -4 -10 -10 -10 -5 0 -10 5 -10
10 0 6 5 10 10 10 6 0 10 -4 10 -10z m86 -6 c-5 -14 -4 -15 9 -4 13 11 14 10
9 -4 -8 -20 -15 -20 -40 0 -10 8 -13 13 -6 9 6 -3 12 -1 12 4 0 6 5 11 11 11
6 0 8 -7 5 -16z m1724 6 c8 -5 11 -10 6 -10 -5 0 -3 -6 3 -13 6 -8 8 -17 5
-20 -6 -6 -44 35 -44 47 0 9 13 7 30 -4z m-1946 -36 c9 -24 7 -31 -5 -14 -8
11 -12 12 -16 3 -2 -7 -9 -13 -14 -13 -5 0 -4 9 3 20 15 24 24 25 32 4z m30 0
c8 -21 8 -24 -5 -24 -5 0 -7 5 -4 10 3 6 1 10 -4 10 -6 0 -11 5 -11 10 0 16
17 12 24 -6z m56 4 c0 -9 3 -9 8 -3 4 6 18 12 31 12 31 2 20 -8 -27 -24 -45
-15 -55 -16 -47 -3 4 6 11 8 16 5 5 -3 6 1 3 9 -3 9 -1 16 5 16 6 0 11 -6 11
-12z m-1025 -9 c-18 -5 -33 -5 -39 1 -7 7 4 10 30 9 39 -1 39 -1 9 -10z m793
-19 c-13 -20 -28 -27 -28 -12 0 10 22 32 32 32 5 0 3 -9 -4 -20z m345 -25 c3
-20 2 -75 -3 -123 -5 -48 -16 -172 -24 -276 -10 -128 -19 -192 -28 -197 -21
-13 -138 -42 -144 -36 -3 3 -25 63 -49 134 -24 70 -46 121 -49 113 -3 -8 -9
-78 -13 -155 l-8 -140 -75 -22 c-69 -20 -76 -20 -88 -5 -14 19 -101 280 -127
384 -9 37 -15 81 -13 98 3 30 9 34 87 66 47 19 86 34 88 34 2 0 3 -22 3 -48 0
-94 13 -261 20 -257 4 2 10 43 14 90 3 47 11 119 17 161 l12 76 45 19 c83 36
80 38 117 -96 49 -175 55 -187 47 -80 -4 50 -7 123 -7 164 l0 74 75 27 c41 15
80 28 86 29 6 0 14 -15 17 -34z m-323 16 c0 -5 -6 -12 -12 -14 -8 -3 -6 -6 5
-6 9 -1 17 -6 17 -13 0 -6 9 -1 20 12 17 19 20 20 20 6 0 -9 5 -14 10 -11 6 3
10 1 10 -5 0 -7 -6 -10 -12 -7 -7 2 -20 -1 -28 -9 -12 -10 -19 -9 -38 6 -13
11 -20 24 -16 34 7 17 24 22 24 7z m99 -32 c16 -45 14 -48 -9 -14 -22 33 -25
45 -11 45 5 0 14 -14 20 -31z m21 21 c0 -5 -4 -10 -10 -10 -5 0 -10 5 -10 10
0 6 5 10 10 10 6 0 10 -4 10 -10z m-480 -30 c0 -5 -5 -10 -11 -10 -5 0 -7 5
-4 10 3 6 8 10 11 10 2 0 4 -4 4 -10z m15 -30 c3 -5 1 -10 -4 -10 -6 0 -11 5
-11 10 0 6 2 10 4 10 3 0 8 -4 11 -10z m90 -10 c3 -5 1 -10 -4 -10 -6 0 -11 5
-11 10 0 6 2 10 4 10 3 0 8 -4 11 -10z m121 -28 c-17 -16 -18 -16 -5 5 7 12
15 20 18 17 3 -2 -3 -12 -13 -22z m-254 -31 c-9 -17 -19 -25 -23 -19 -4 6 -13
15 -20 20 -10 7 -8 8 9 5 15 -4 25 0 29 9 3 8 9 14 14 14 4 0 0 -13 -9 -29z
m-67 9 c3 -5 1 -10 -4 -10 -6 0 -11 5 -11 10 0 6 2 10 4 10 3 0 8 -4 11 -10z
m2255 -10 c0 -5 -4 -10 -10 -10 -5 0 -10 5 -10 10 0 6 5 10 10 10 6 0 10 -4
10 -10z m-2240 -20 c0 -5 -2 -10 -4 -10 -3 0 -8 5 -11 10 -3 6 -1 10 4 10 6 0
11 -4 11 -10z m187 4 c-3 -3 -12 -4 -19 -1 -8 3 -5 6 6 6 11 1 17 -2 13 -5z
m-282 -51 c14 -15 25 -35 24 -43 0 -13 -1 -13 -6 0 -3 8 -17 27 -31 43 -14 15
-23 27 -19 27 3 0 18 -12 32 -27z m2721 -36 c1 -9 -4 -17 -12 -17 -8 0 -14 9
-14 21 0 24 22 21 26 -4z m235 -24 c-10 -4 -11 -7 -1 -13 14 -9 5 -30 -13 -29
-8 0 -7 3 2 6 10 4 11 7 1 13 -14 9 -5 30 13 29 8 0 7 -3 -2 -6z m-2905 -28
c3 -13 4 -30 1 -37 -3 -7 -6 -2 -6 13 -1 14 -6 30 -13 37 -9 9 -9 12 0 12 6 0
14 -11 18 -25z m73 -9 c0 -15 -2 -16 -6 -6 -4 8 -13 20 -22 27 -14 10 -13 11
7 6 14 -3 22 -13 21 -27z m2361 -341 c-7 -132 -14 -243 -17 -248 -4 -7 -97
-57 -107 -57 -2 0 -7 12 -10 28 -4 15 -16 62 -28 105 -21 81 -41 106 -27 35 4
-24 8 -78 9 -120 l0 -78 -62 -28 -63 -28 -6 55 c-6 48 -11 226 -13 499 l-1 64
59 24 c33 13 63 21 67 17 4 -5 21 -52 40 -105 18 -54 34 -96 36 -94 2 2 -1 32
-7 67 -5 35 -10 87 -10 115 l0 50 73 30 72 29 3 -60 c2 -33 -1 -168 -8 -300z
m-1600 325 c0 -5 -4 -10 -10 -10 -5 0 -10 5 -10 10 0 6 5 10 10 10 6 0 10 -4
10 -10z m2067 -20 c-1 -11 -5 -20 -10 -20 -4 0 -5 -4 -2 -10 3 -5 2 -10 -4
-10 -5 0 -13 5 -16 10 -3 6 -1 10 5 10 6 0 8 5 5 10 -3 6 0 10 7 10 9 0 9 3
-2 10 -13 8 -13 10 2 10 11 0 16 -7 15 -20z m-2891 -72 c-19 -27 -21 -19 -4
18 7 14 14 21 16 15 2 -6 -4 -21 -12 -33z m-371 0 c8 8 -3 -35 -15 -57 -5 -10
-10 -4 -15 20 -3 19 -9 43 -11 54 -5 19 -4 19 14 -2 11 -12 23 -19 27 -15z
m3245 22 c13 -8 13 -10 -2 -10 -9 0 -20 5 -23 10 -8 13 5 13 25 0z m-2800 -20
c0 -5 -7 -7 -15 -4 -8 4 -15 8 -15 10 0 2 7 4 15 4 8 0 15 -4 15 -10z m758
-38 c2 -17 -1 -39 -6 -48 -6 -11 -8 -3 -8 28 1 30 -3 42 -12 40 -8 -1 -10 2
-7 8 12 20 30 4 33 -28z m-847 -19 c-8 -15 -10 -15 -11 -2 0 17 10 32 18 25 2
-3 -1 -13 -7 -23z m2033 -25 c10 -78 26 -572 18 -579 -9 -7 -112 -49 -122 -49
-4 0 -13 78 -19 173 -7 94 -16 222 -21 282 -15 172 -20 157 58 187 37 14 70
26 74 27 4 1 9 -18 12 -41z m470 27 c-4 -8 -11 -15 -16 -15 -6 0 -5 6 2 15 7
8 14 15 16 15 2 0 1 -7 -2 -15z m-2840 -4 c3 -5 -1 -11 -9 -14 -9 -4 -12 -1
-8 9 6 16 10 17 17 5z m1161 -51 c3 -5 1 -10 -4 -10 -6 0 -11 5 -11 10 0 6 2
10 4 10 3 0 8 -4 11 -10z m15 -25 c-31 -32 -38 -25 -8 8 13 14 25 24 27 21 2
-2 -6 -15 -19 -29z m349 -13 c-7 -15 -19 -34 -25 -42 -7 -8 -27 -43 -44 -77
-17 -35 -33 -63 -36 -63 -2 0 0 9 6 20 6 11 8 24 5 29 -3 5 -2 11 3 13 13 5
53 80 47 86 -3 4 -11 0 -16 -8 -8 -11 -9 -9 -4 9 5 17 4 22 -5 16 -8 -5 -11
-4 -6 3 3 6 -2 12 -11 14 -15 3 -14 5 5 10 14 4 22 2 22 -7 0 -7 7 -15 15 -19
9 -3 15 0 15 8 0 8 6 17 13 19 6 3 3 6 -8 7 -18 1 -17 2 5 15 30 17 38 4 19
-33z m-983 23 c-3 -9 0 -15 10 -15 8 0 12 -4 9 -10 -3 -5 -2 -10 4 -10 12 0
26 -24 35 -63 l6 -27 -36 35 c-20 20 -39 33 -42 30 -4 -3 17 -27 45 -54 28
-26 54 -58 58 -71 11 -35 32 -52 55 -45 11 4 20 2 20 -4 0 -6 9 -11 20 -11 11
0 20 -5 20 -10 0 -7 -13 -9 -32 -5 -18 3 -43 7 -55 8 -13 1 -23 5 -23 9 0 4
-8 4 -17 1 -12 -5 -15 -2 -10 10 4 11 2 14 -8 10 -8 -3 -12 -9 -9 -14 3 -5 -2
-9 -11 -9 -11 0 -15 5 -11 15 3 8 -1 21 -9 29 -8 7 -12 16 -10 20 3 3 2 4 -1
2 -3 -3 -11 0 -18 5 -6 5 -22 18 -34 29 -13 10 -21 24 -17 29 4 7 0 8 -10 5
-11 -5 -18 0 -22 15 -4 17 -23 31 -23 17 0 -10 29 -70 30 -61 0 6 7 2 14 -7 7
-10 24 -22 37 -28 24 -10 24 -10 -3 -7 -16 3 -28 0 -28 -4 0 -9 16 -13 35 -9
6 1 5 -4 -2 -11 -6 -6 -19 -9 -27 -6 -15 6 -82 127 -70 127 4 0 -5 11 -20 25
-31 29 -33 41 -6 48 11 3 20 1 20 -4 0 -5 -5 -9 -12 -9 -6 0 -8 -3 -4 -7 7 -8
11 -9 39 -12 8 -1 7 -4 -3 -11 -13 -8 -13 -10 2 -10 9 0 20 9 23 20 7 21 35
28 35 9 0 -8 4 -9 13 0 8 6 17 7 22 3 4 -4 6 0 3 8 -2 8 0 20 6 27 15 17 19
16 12 -2z m-90 -12 c-1 -7 -5 -13 -9 -13 -30 1 -32 2 -19 7 6 2 10 8 8 12 -3
4 1 8 8 8 8 0 13 -6 12 -14z m1394 -8 c7 -9 8 -15 2 -15 -5 0 -12 7 -16 15 -3
8 -4 15 -2 15 2 0 9 -7 16 -15z m310 -267 c36 -145 60 -263 58 -284 -3 -35 -6
-39 -53 -55 -71 -25 -73 -24 -81 26 -3 25 -7 45 -9 45 -1 0 -16 -5 -34 -11
-31 -11 -32 -13 -29 -62 l3 -51 -63 -19 c-48 -14 -67 -16 -75 -8 -14 14 -17
175 -8 430 l6 184 105 36 c66 23 107 33 111 26 4 -5 35 -121 69 -257z m-863
245 c-4 -3 1 -11 9 -18 15 -10 15 -14 -1 -44 -9 -18 -19 -30 -22 -27 -3 3 -1
12 6 20 8 10 9 21 1 40 -13 34 -13 36 2 36 6 0 8 -3 5 -7z m145 -59 c-6 -12
-9 -7 -9 16 0 23 3 28 9 16 5 -9 5 -23 0 -32z m-532 9 c6 -16 16 -38 22 -51 9
-17 9 -25 -2 -35 -10 -10 -12 -8 -7 11 3 12 1 22 -4 22 -5 0 -11 -11 -15 -25
-3 -13 -9 -24 -13 -23 -20 2 -30 -4 -25 -17 8 -21 2 -19 -20 7 -14 16 -15 20
-3 15 10 -4 17 1 20 14 3 13 11 17 21 13 9 -3 16 -1 16 5 0 6 -4 11 -10 11
-17 0 -28 34 -19 58 11 30 27 28 39 -5z m872 -10 c-6 -2 -9 -10 -6 -15 4 -7 2
-8 -4 -4 -18 11 -14 26 6 25 10 0 12 -3 4 -6z m-722 -34 c0 -5 -4 -8 -9 -4 -5
3 -11 -7 -13 -22 -2 -17 -12 -32 -25 -38 -13 -5 -23 -13 -23 -17 0 -5 -5 -8
-11 -8 -5 0 -7 4 -4 10 3 5 0 7 -8 4 -17 -6 -29 19 -21 41 7 17 24 20 24 5 0
-5 -4 -10 -10 -10 -5 0 -10 -4 -10 -10 0 -21 19 -9 28 19 8 21 18 31 39 34 15
2 31 5 36 6 4 0 7 -4 7 -10z m215 -9 c3 -5 1 -10 -4 -10 -6 0 -11 5 -11 10 0
6 2 10 4 10 3 0 8 -4 11 -10z m494 -157 c12 -93 33 -226 46 -298 13 -71 23
-131 21 -132 -8 -9 -137 -40 -140 -34 -2 3 -11 47 -21 96 -20 106 -25 117 -44
105 -13 -7 -11 -24 8 -110 13 -56 21 -103 19 -105 -9 -9 -134 -33 -139 -27
-10 10 -85 331 -107 455 -14 78 -17 109 -8 112 6 2 40 13 75 24 36 12 66 19
68 17 2 -2 11 -48 19 -102 17 -106 22 -118 43 -105 11 7 11 25 -3 111 -9 57
-14 106 -11 109 7 6 123 48 140 50 7 0 20 -69 34 -166z m1355 116 c-21 -24
-29 -18 -14 10 6 12 16 19 21 15 6 -4 4 -13 -7 -25z m-1824 17 c0 -3 -4 -8
-10 -11 -5 -3 -10 -1 -10 4 0 6 5 11 10 11 6 0 10 -2 10 -4z m-750 -41 c11
-13 10 -14 -4 -9 -9 3 -16 10 -16 15 0 13 6 11 20 -6z m272 -37 c-11 -22 -11
-22 -6 5 4 16 2 27 -5 27 -6 0 -11 5 -11 12 0 8 6 6 17 -4 13 -14 14 -21 5
-40z m-35 20 c-2 -13 -2 -17 0 -10 8 22 25 13 18 -9 -5 -14 -2 -25 6 -31 11
-6 9 -8 -6 -6 -26 4 -48 25 -40 38 4 6 3 10 -2 9 -4 -1 -17 -1 -28 1 l-20 1
20 8 c11 5 26 6 34 3 9 -3 12 -1 7 6 -4 7 -2 12 4 12 6 0 9 -10 7 -22z m114
-3 c11 7 11 3 3 -19 -5 -13 -8 -13 -20 -1 -8 8 -11 21 -7 32 7 17 8 17 11 0 2
-9 8 -15 13 -12z m50 0 c5 4 9 -3 9 -13 0 -11 -15 -31 -34 -46 -41 -31 -41
-31 -43 -7 -1 12 5 18 15 17 9 0 17 4 17 9 0 6 5 24 9 40 7 22 10 25 13 12 3
-9 9 -15 14 -12z m-105 -32 c-10 -10 -19 5 -10 18 6 11 8 11 12 0 2 -7 1 -15
-2 -18z m-277 -42 c0 -14 -1 -14 -6 -1 -3 8 -13 24 -22 35 -16 20 -16 20 7 1
12 -11 22 -26 21 -35z m51 39 c0 -5 -7 -10 -15 -10 -8 0 -15 5 -15 10 0 6 7
10 15 10 8 0 15 -4 15 -10z m724 -68 c11 -77 -1 -94 -79 -111 -30 -7 -57 -16
-59 -20 -5 -8 50 -230 59 -240 3 -3 34 1 68 8 34 8 68 14 76 15 14 1 55 -119
47 -140 -2 -5 -49 -18 -105 -28 -173 -30 -201 -8 -268 206 -68 219 -68 269 0
304 38 20 216 73 237 70 10 -1 18 -20 24 -64z m-474 48 c0 -5 -4 -10 -10 -10
-5 0 -10 5 -10 10 0 6 5 10 10 10 6 0 10 -4 10 -10z m-270 -50 c8 -5 11 -10 5
-10 -5 0 -17 5 -25 10 -8 5 -10 10 -5 10 6 0 17 -5 25 -10z m255 0 c-3 -5 -11
-10 -16 -10 -6 0 -7 5 -4 10 3 6 11 10 16 10 6 0 7 -4 4 -10z m-112 -17 c-7
-2 -19 -2 -25 0 -7 3 -2 5 12 5 14 0 19 -2 13 -5z m2227 -300 c-14 -9 -48 -36
-76 -60 -55 -47 -74 -52 -95 -27 -7 9 -22 20 -34 24 -19 8 -18 9 4 9 13 1 21
4 18 8 -4 3 8 15 26 27 29 18 67 27 152 34 l30 3 -25 -18z m-895 -23 c3 -5 -1
-10 -9 -10 -9 0 -16 5 -16 10 0 6 4 10 9 10 6 0 13 -4 16 -10z m685 0 c0 -5
-3 -10 -8 -10 -4 0 -12 -10 -17 -22 -6 -12 -39 -44 -75 -71 -36 -28 -65 -53
-65 -56 0 -4 -10 -19 -22 -35 -16 -20 -23 -24 -23 -13 0 9 9 21 21 27 11 7 18
14 16 17 -3 3 -25 -8 -49 -25 -124 -85 -433 -212 -524 -215 -23 -1 -40 -5 -37
-9 2 -5 -5 -8 -16 -8 -10 0 -21 3 -24 8 -2 4 -2 1 -1 -6 2 -8 -9 -12 -31 -12
-24 0 -35 5 -35 14 0 18 -32 14 -38 -4 -3 -9 1 -11 11 -7 9 3 19 2 22 -2 5 -9
-101 -21 -172 -19 -24 1 -43 6 -43 12 0 7 -3 7 -8 1 -4 -5 -15 -11 -24 -13
-13 -2 -18 4 -19 25 l-1 28 -8 -30 c-6 -22 -8 -6 -11 60 l-3 90 -6 -90 c-5
-78 -7 -83 -9 -35 -2 30 -6 44 -8 30 -8 -47 -15 -57 -23 -30 -7 22 -8 20 -11
-15 -2 -26 -5 -12 -9 40 l-6 80 -3 -75 c-2 -41 -5 -67 -8 -57 -5 18 -23 24
-23 6 0 -5 -4 -7 -10 -4 -5 3 -10 -2 -11 -12 0 -16 -1 -16 -9 2 -5 11 -9 15
-9 9 -1 -19 -101 -9 -258 27 -29 6 -50 15 -47 20 3 5 -1 6 -9 3 -16 -6 -181
53 -262 93 -75 38 -205 116 -205 124 0 3 24 4 53 1 28 -2 60 -5 69 -5 9 -1 14
-5 12 -9 -3 -4 -1 -8 4 -8 5 0 19 -9 31 -19 15 -13 18 -20 9 -24 -14 -5 91
-22 107 -18 6 2 19 4 30 6 29 4 72 22 79 34 4 6 13 8 21 5 9 -4 18 1 21 11 4
9 13 14 20 11 8 -3 14 -1 14 5 0 6 12 1 26 -10 15 -12 33 -21 40 -21 8 0 14
-4 14 -10 0 -16 -35 -11 -56 8 -11 10 -25 17 -32 14 -17 -5 -15 -22 3 -22 8 0
15 -4 15 -10 0 -5 -10 -10 -23 -10 -13 0 -27 -3 -31 -7 -4 -5 -20 -8 -34 -9
-15 -1 -40 -2 -57 -3 l-30 -2 25 -11 c14 -5 54 -11 90 -13 36 -2 90 -7 120
-10 30 -4 67 -8 81 -9 14 -2 31 -6 38 -10 6 -4 17 -3 24 2 11 8 149 24 205 23
16 -1 22 5 23 22 1 17 2 18 6 5 7 -26 32 -22 43 7 9 25 30 35 30 14 0 -5 -4
-7 -10 -4 -5 3 -10 -2 -10 -12 0 -14 8 -18 34 -19 56 -2 86 -13 97 -37 l10
-22 -5 23 c-4 22 -2 22 92 23 54 1 106 0 117 -2 87 -13 184 8 181 39 -1 12 8
18 28 20 28 3 29 2 15 -14 -11 -15 -7 -14 22 4 20 12 38 20 41 17 2 -2 22 0
44 6 21 6 49 12 61 14 22 2 63 35 44 35 -6 0 -11 4 -11 8 0 4 9 8 20 8 11 0
20 -6 20 -13 0 -15 22 -17 36 -3 5 5 18 11 29 13 11 1 32 11 46 20 15 10 31
17 35 16 5 -1 20 -1 33 0 20 1 22 5 17 26 -5 20 -2 26 19 31 14 3 25 11 25 18
0 6 4 5 9 -3 8 -12 12 -12 25 2 12 11 13 17 3 20 -7 3 -5 6 6 6 9 1 17 6 17
11 0 6 7 10 15 10 8 0 15 -4 15 -10z m-580 -44 c0 -2 -7 -6 -15 -10 -8 -3 -15
-1 -15 4 0 6 7 10 15 10 8 0 15 -2 15 -4z m607 -27 c19 -12 31 -25 26 -29 -35
-33 -148 -109 -151 -102 -1 5 6 29 17 55 11 25 18 47 15 49 -2 3 6 13 18 24
15 13 19 14 13 3 -6 -8 -3 -7 5 3 19 22 16 22 57 -3z m-132 -104 l-15 -50 6
50 c6 51 15 77 21 60 1 -6 -4 -32 -12 -60z m-30 -27 c-3 -18 -7 -41 -9 -50 -3
-27 -15 -33 -12 -6 5 38 17 88 22 88 3 0 2 -15 -1 -32z m-1768 -10 c-3 -8 -6
-5 -6 6 -1 11 2 17 5 13 3 -3 4 -12 1 -19z m1736 -16 c-8 -48 -53 -77 -119
-76 -41 1 -51 -2 -47 -13 3 -8 12 -12 19 -9 8 3 14 1 14 -4 0 -6 -9 -10 -20
-10 -11 0 -20 4 -20 9 0 5 -2 15 -5 23 -6 15 106 53 131 44 7 -3 13 -1 11 4
-2 8 35 72 39 67 1 -1 -1 -17 -3 -35z m-66 3 c0 -9 -10 -15 -24 -15 -13 0 -22
-4 -18 -9 5 -9 -4 -13 -57 -27 -16 -4 77 58 98 66 0 0 1 -7 1 -15z m-1583
-134 c38 -39 39 -40 15 -45 -40 -7 -69 -3 -69 12 0 10 -11 12 -45 6 -41 -6
-45 -5 -45 15 0 11 5 21 10 21 6 0 10 9 10 19 0 11 5 23 11 27 8 4 7 9 -2 15
-9 5 -16 3 -20 -9 -5 -13 -9 -10 -23 16 l-17 33 68 -35 c37 -19 86 -52 107
-75z m1448 34 c4 -5 8 -22 8 -37 0 -43 -25 -49 -114 -28 -43 11 -80 21 -82 23
-2 2 24 15 59 29 63 25 116 31 129 13z m144 -46 c-21 -40 -20 -39 -103 -43
-18 -1 -27 30 -11 41 7 3 8 1 4 -5 -4 -7 -3 -12 3 -12 15 0 83 42 77 48 -3 2
-17 -3 -30 -12 -34 -22 -47 -20 -17 3 13 10 40 18 61 18 l37 0 -21 -38z
m-1496 -4 c7 -8 8 -15 2 -15 -5 0 -15 7 -22 15 -7 8 -8 15 -2 15 5 0 15 -7 22
-15z m1200 -21 c87 -9 121 -23 59 -23 -38 -1 -74 -16 -210 -89 -90 -49 -165
-88 -167 -87 -2 2 22 43 52 91 54 87 56 89 113 105 32 10 65 16 73 14 8 -2 44
-7 80 -11z m-1062 -50 c14 -7 32 -10 41 -7 12 3 11 2 -2 -7 -10 -7 -21 -10
-24 -7 -2 3 -14 -4 -25 -15 l-20 -20 -44 43 c-24 24 -44 46 -44 50 0 8 79 -17
118 -37z m78 8 c-10 -2 -22 0 -28 6 -6 6 0 7 19 4 21 -5 23 -7 9 -10z m691
-80 l-54 -91 -22 39 c-12 21 -21 42 -19 47 1 4 -5 20 -12 36 -7 15 -11 29 -9
31 5 5 162 33 167 30 2 -1 -21 -42 -51 -92z m348 68 c-16 -11 -36 -20 -43 -20
-6 0 -22 -11 -34 -25 -12 -14 -26 -25 -32 -25 -6 0 -3 5 7 11 34 20 16 28 -20
10 -67 -34 -135 -62 -139 -58 -2 2 47 29 109 60 98 49 125 60 172 66 6 0 -3
-8 -20 -19z m-980 0 c-3 -5 -11 -10 -16 -10 -6 0 -7 5 -4 10 3 6 11 10 16 10
6 0 7 -4 4 -10z m505 -19 c0 -5 -36 -18 -79 -31 -57 -16 -84 -19 -97 -12 -15
8 -13 11 14 16 17 4 35 13 41 20 6 6 29 13 53 15 23 1 44 4 47 6 5 6 21 -4 21
-14z m-270 -7 c0 -2 -7 -4 -15 -4 -8 0 -15 4 -15 10 0 5 7 7 15 4 8 -4 15 -8
15 -10z m78 2 c1 -2 -4 -8 -11 -15 -11 -8 -18 -6 -32 9 -17 19 -16 19 11 14
16 -3 30 -7 32 -8z m37 4 c-3 -5 -12 -10 -18 -10 -7 0 -6 4 3 10 19 12 23 12
15 0z m-75 -61 c-5 -9 -24 -19 -42 -23 -29 -6 -37 -2 -77 38 l-44 44 86 -21
c74 -18 84 -23 77 -38z m-240 7 c-12 -33 -13 -64 -2 -50 5 5 15 28 22 52 7 23
17 42 22 42 15 0 107 -74 104 -84 -2 -9 -114 -52 -160 -61 -18 -4 -166 89
-166 105 0 7 101 33 107 27 2 -2 -13 -12 -32 -23 -64 -34 -36 -33 32 2 72 36
90 34 73 -10z m280 0 c0 -3 -4 -8 -10 -11 -5 -3 -10 -1 -10 4 0 6 5 11 10 11
6 0 10 -2 10 -4z m85 -6 c-3 -5 -12 -10 -18 -10 -7 0 -6 4 3 10 19 12 23 12
15 0z m-36 -14 c-16 -14 -99 -54 -99 -48 0 15 25 40 45 45 26 6 60 8 54 3z
m-105 -31 c-7 -17 -20 -20 -29 -6 -3 5 3 12 12 14 10 3 19 5 20 6 1 0 0 -6 -3
-14z"/>
<path d="M3343 3543 c-7 -2 -13 -14 -13 -25 0 -18 15 -18 15 0 0 4 4 13 8 20
9 13 8 13 -10 5z"/>
<path d="M3429 3493 c-13 -15 -12 -15 9 -4 23 12 28 21 13 21 -5 0 -15 -7 -22
-17z"/>
<path d="M3345 3490 c-3 -6 1 -7 9 -4 18 7 21 14 7 14 -6 0 -13 -4 -16 -10z"/>
<path d="M3457 3484 c-16 -9 -27 -18 -24 -20 3 -3 20 4 38 15 39 24 28 28 -14
5z"/>
<path d="M3450 3455 c-14 -8 -19 -14 -10 -14 8 0 24 6 34 14 25 19 9 19 -24 0z"/>
<path d="M3446 3421 c-3 -5 1 -11 9 -14 9 -4 12 -1 8 9 -6 16 -10 17 -17 5z"/>
<path d="M3545 3400 c-3 -6 1 -7 9 -4 18 7 21 14 7 14 -6 0 -13 -4 -16 -10z"/>
<path d="M3828 3303 c7 -3 16 -2 19 1 4 3 -2 6 -13 5 -11 0 -14 -3 -6 -6z"/>
<path d="M3925 3150 c-19 -8 -19 -9 3 -9 13 -1 20 -5 17 -11 -3 -5 1 -10 9
-10 18 0 19 2 10 24 -7 18 -10 18 -39 6z"/>
<path d="M4060 2929 c0 -5 5 -7 10 -4 6 3 10 8 10 11 0 2 -4 4 -10 4 -5 0 -10
-5 -10 -11z"/>
<path d="M2417 3516 c-3 -8 2 -21 12 -30 16 -14 17 -13 16 11 0 29 -19 42 -28
19z"/>
<path d="M2424 3406 c2 -20 6 -39 9 -42 3 -3 4 10 3 30 -2 20 -6 39 -9 42 -3
3 -4 -10 -3 -30z"/>
<path d="M2556 3383 c-6 -14 -5 -15 5 -6 7 7 10 15 7 18 -3 3 -9 -2 -12 -12z"/>
<path d="M2396 3337 c3 -10 9 -15 12 -12 3 3 0 11 -7 18 -10 9 -11 8 -5 -6z"/>
<path d="M2547 3326 c-4 -10 -3 -15 3 -11 6 3 10 1 10 -6 0 -7 3 -10 6 -6 3 3
2 13 -4 22 -8 16 -9 16 -15 1z"/>
<path d="M2321 3274 c0 -11 3 -14 6 -6 3 7 2 16 -1 19 -3 4 -6 -2 -5 -13z"/>
<path d="M2325 3239 c-4 -6 -5 -12 -2 -15 2 -3 7 2 10 11 7 17 1 20 -8 4z"/>
<path d="M2954 3164 c3 -9 9 -27 12 -40 6 -23 15 -30 26 -18 11 10 -15 74 -30
74 -9 0 -12 -6 -8 -16z"/>
<path d="M3018 2975 c-3 -3 -1 -24 4 -45 8 -29 16 -40 29 -40 20 0 23 10 13
59 -6 28 -30 42 -46 26z"/>
<path d="M1270 3210 c-13 -9 -13 -11 0 -20 8 -5 24 -10 35 -9 18 0 17 1 -5 14
l-25 15 29 -6 c21 -5 27 -4 22 5 -9 14 -36 14 -56 1z"/>
<path d="M1310 3152 c0 -10 90 -46 97 -38 3 3 -6 10 -21 16 -14 5 -37 14 -51
20 -14 5 -25 6 -25 2z"/>
<path d="M1240 3121 c0 -10 24 -21 43 -21 7 0 3 7 -7 15 -22 17 -36 19 -36 6z"/>
<path d="M2606 3010 c8 -95 14 -120 30 -120 19 0 18 12 -11 105 l-25 80 6 -65z"/>
<path d="M4188 2913 c7 -3 16 -2 19 1 4 3 -2 6 -13 5 -11 0 -14 -3 -6 -6z"/>
<path d="M2414 3086 c-3 -8 -1 -23 5 -33 8 -15 10 -12 8 14 -2 36 -5 40 -13
19z"/>
<path d="M1513 2953 c9 -9 19 -14 23 -11 10 10 -6 28 -24 28 -15 0 -15 -1 1
-17z"/>
<path d="M1502 2934 c10 -10 20 -15 24 -12 3 4 -5 12 -18 18 -22 12 -22 12 -6
-6z"/>
<path d="M1089 2905 c18 -8 41 -15 50 -14 22 1 -39 28 -64 28 -14 0 -9 -4 14
-14z"/>
<path d="M1055 2892 c6 -6 24 -13 40 -17 21 -4 25 -3 15 3 -24 15 -67 26 -55
14z"/>
<path d="M1070 2840 c-11 -7 -9 -11 14 -20 16 -6 31 -8 34 -5 4 3 -4 8 -16 12
-12 3 -19 9 -16 14 7 11 3 11 -16 -1z"/>
<path d="M1060 2800 c20 -13 43 -13 35 0 -3 6 -16 10 -28 10 -18 0 -19 -2 -7
-10z"/>
<path d="M1145 2800 c3 -5 8 -10 11 -10 2 0 4 5 4 10 0 6 -5 10 -11 10 -5 0
-7 -4 -4 -10z"/>
<path d="M1020 2791 c0 -10 25 -21 48 -21 12 1 10 5 -8 15 -29 17 -40 18 -40
6z"/>
<path d="M1190 2785 c14 -8 30 -14 35 -14 6 0 -1 6 -15 14 -14 8 -29 14 -35
14 -5 0 1 -6 15 -14z"/>
<path d="M1250 2790 c20 -13 33 -13 25 0 -3 6 -14 10 -23 10 -15 0 -15 -2 -2
-10z"/>
<path d="M1300 2776 c0 -2 7 -7 16 -10 8 -3 12 -2 9 4 -6 10 -25 14 -25 6z"/>
<path d="M1190 2756 c0 -2 9 -6 20 -9 11 -3 18 -1 14 4 -5 9 -34 13 -34 5z"/>
<path d="M1348 2753 c7 -3 16 -2 19 1 4 3 -2 6 -13 5 -11 0 -14 -3 -6 -6z"/>
<path d="M960 2702 c0 -5 26 -17 58 -28 71 -23 89 -28 81 -20 -11 11 -139 56
-139 48z"/>
<path d="M1195 2700 c27 -12 43 -12 25 0 -8 5 -22 9 -30 9 -10 0 -8 -3 5 -9z"/>
<path d="M3630 2780 c-8 -5 -12 -11 -9 -14 2 -3 11 -1 19 4 8 5 12 11 9 14 -2
3 -11 1 -19 -4z"/>
<path d="M1472 2541 c-13 -93 -11 -114 9 -94 6 6 9 47 7 99 l-3 89 -13 -94z"/>
<path d="M2726 2491 c18 -37 29 -39 44 -8 11 21 10 21 -4 3 -9 -11 -19 -17
-22 -13 -4 4 -1 14 7 24 10 12 10 15 1 9 -7 -4 -19 -2 -27 4 -12 10 -12 6 1
-19z"/>
<path d="M3507 2483 c-8 -16 27 -273 37 -273 36 1 39 16 27 116 -19 155 -21
164 -42 164 -10 0 -20 -3 -22 -7z"/>
<path d="M2555 2560 c3 -5 8 -10 11 -10 2 0 4 5 4 10 0 6 -5 10 -11 10 -5 0
-7 -4 -4 -10z"/>
<path d="M900 2534 c0 -6 65 -34 77 -34 9 1 -58 39 -69 40 -5 0 -8 -2 -8 -6z"/>
<path d="M890 2511 c0 -9 52 -31 73 -31 16 0 4 8 -36 25 -20 8 -37 11 -37 6z"/>
<path d="M2723 2242 c-7 -4 -9 -24 -6 -55 5 -39 9 -47 26 -47 17 0 19 5 13 31
-3 17 -6 42 -6 55 0 25 -7 29 -27 16z"/>
<path d="M2285 2101 c-5 -10 23 -301 30 -309 2 -2 12 1 23 7 13 7 18 18 15 33
-2 13 -9 79 -16 148 -10 101 -16 125 -29 128 -9 2 -19 -2 -23 -7z"/>
<path d="M1657 2233 c-4 -3 -7 -11 -7 -17 0 -6 5 -5 12 2 6 6 9 14 7 17 -3 3
-9 2 -12 -2z"/>
<path d="M1470 1591 c0 -10 19 -25 25 -20 1 2 -3 10 -11 17 -8 7 -14 8 -14 3z"/>
<path d="M1392 1548 c2 -6 11 -13 19 -16 12 -3 12 -2 0 6 -11 8 -10 11 5 15
16 4 15 5 -4 6 -14 1 -22 -4 -20 -11z"/>
<path d="M1486 1485 c-3 -8 -1 -15 4 -15 6 0 10 7 10 15 0 8 -2 15 -4 15 -2 0
-6 -7 -10 -15z"/>
<path d="M2930 1344 c0 -84 10 -134 26 -134 17 0 17 17 0 108 -18 93 -26 101
-26 26z"/>
<path d="M1815 1529 c-8 -25 9 -47 20 -28 5 8 4 10 -4 5 -8 -6 -10 0 -5 18 7
31 -2 35 -11 5z"/>
<path d="M1920 1456 c0 -2 7 -7 16 -10 8 -3 12 -2 9 4 -6 10 -25 14 -25 6z"/>
<path d="M3580 880 c0 -5 5 -10 10 -10 6 0 10 5 10 10 0 6 -4 10 -10 10 -5 0
-10 -4 -10 -10z"/>
<path d="M1640 771 c0 -4 16 -14 35 -23 34 -15 47 -10 23 9 -17 13 -58 23 -58
14z"/>
<path d="M2533 625 c0 -27 2 -38 4 -22 2 15 2 37 0 50 -2 12 -4 0 -4 -28z"/>
<path d="M2553 605 c0 -38 2 -53 4 -32 2 20 2 52 0 70 -2 17 -4 1 -4 -38z"/>
<path d="M2582 640 c0 -19 2 -27 5 -17 2 9 2 25 0 35 -3 9 -5 1 -5 -18z"/>
<path d="M2632 645 c0 -16 2 -22 5 -12 2 9 2 23 0 30 -3 6 -5 -1 -5 -18z"/>
<path d="M2603 625 c0 -22 2 -30 4 -17 2 12 2 30 0 40 -3 9 -5 -1 -4 -23z"/>
<path d="M2481 634 c0 -11 3 -14 6 -6 3 7 2 16 -1 19 -3 4 -6 -2 -5 -13z"/>
<path d="M2730 629 c0 -18 2 -19 15 -5 8 8 15 17 15 20 0 3 -7 6 -15 6 -9 0
-15 -9 -15 -21z"/>
<path d="M2782 630 c0 -14 2 -19 5 -12 2 6 2 18 0 25 -3 6 -5 1 -5 -13z"/>
<path d="M2805 640 c3 -5 8 -10 11 -10 2 0 4 5 4 10 0 6 -5 10 -11 10 -5 0 -7
-4 -4 -10z"/>
<path d="M2832 630 c0 -14 2 -19 5 -12 2 6 2 18 0 25 -3 6 -5 1 -5 -13z"/>
<path d="M1930 632 c0 -4 10 -9 22 -9 18 -2 20 0 8 7 -18 12 -30 13 -30 2z"/>
<path d="M2400 624 c0 -8 5 -12 10 -9 6 4 8 11 5 16 -9 14 -15 11 -15 -7z"/>
<path d="M2452 615 c0 -16 2 -22 5 -12 2 9 2 23 0 30 -3 6 -5 -1 -5 -18z"/>
<path d="M2851 624 c0 -11 3 -14 6 -6 3 7 2 16 -1 19 -3 4 -6 -2 -5 -13z"/>
<path d="M2181 614 c0 -11 3 -14 6 -6 3 7 2 16 -1 19 -3 4 -6 -2 -5 -13z"/>
<path d="M2802 595 c0 -16 2 -22 5 -12 2 9 2 23 0 30 -3 6 -5 -1 -5 -18z"/>
<path d="M2232 570 c0 -19 2 -27 5 -17 2 9 2 25 0 35 -3 9 -5 1 -5 -18z"/>
<path d="M2575 580 c3 -5 8 -10 11 -10 2 0 4 5 4 10 0 6 -5 10 -11 10 -5 0 -7
-4 -4 -10z"/>
<path d="M2140 566 c0 -6 9 -12 21 -13 11 -1 19 3 17 9 -5 15 -38 19 -38 4z"/>
<path d="M2652 550 c0 -19 2 -27 5 -17 2 9 2 25 0 35 -3 9 -5 1 -5 -18z"/>
<path d="M2315 540 c-3 -5 -1 -10 4 -10 6 0 11 5 11 10 0 6 -2 10 -4 10 -3 0
-8 -4 -11 -10z"/>
<path d="M2695 540 c-3 -5 -1 -10 4 -10 6 0 11 5 11 10 0 6 -2 10 -4 10 -3 0
-8 -4 -11 -10z"/>
<path d="M2721 534 c0 -11 3 -14 6 -6 3 7 2 16 -1 19 -3 4 -6 -2 -5 -13z"/>
<path d="M2830 540 c0 -5 5 -10 11 -10 5 0 7 5 4 10 -3 6 -8 10 -11 10 -2 0
-4 -4 -4 -10z"/>
<path d="M3185 595 l-40 -14 40 6 c22 3 49 9 60 14 l20 8 -20 0 c-11 0 -38 -7
-60 -14z"/>
<path d="M2524 4159 c-19 -22 -19 -22 4 -10 12 6 22 16 22 21 0 15 -5 12 -26
-11z"/>
<path d="M2326 4142 c-2 -4 -1 -14 5 -22 7 -12 9 -10 9 8 0 23 -5 28 -14 14z"/>
<path d="M2390 4146 c0 -2 7 -7 16 -10 8 -3 12 -2 9 4 -6 10 -25 14 -25 6z"/>
<path d="M2610 4131 c0 -11 39 -26 47 -17 8 8 3 12 -24 20 -13 4 -23 3 -23 -3z"/>
<path d="M3171 4109 c-21 -28 -21 -29 -2 -17 11 7 23 19 26 27 10 25 -1 21
-24 -10z"/>
<path d="M2456 4090 c-41 -42 -44 -57 -4 -17 26 25 52 57 47 57 -2 0 -22 -18
-43 -40z"/>
<path d="M2678 4113 c7 -3 16 -2 19 1 4 3 -2 6 -13 5 -11 0 -14 -3 -6 -6z"/>
<path d="M2855 4113 c-37 -9 -35 -19 4 -15 25 3 43 -1 54 -12 8 -9 21 -16 27
-16 7 0 34 -16 60 -35 26 -19 53 -35 59 -35 6 0 10 -3 10 -7 -3 -20 2 -24 16
-13 13 11 18 10 29 -6 16 -22 21 -19 30 16 5 17 4 21 -2 11 -7 -9 -16 -11 -28
-6 -11 4 -26 9 -34 10 -18 2 -90 47 -115 71 -14 14 -90 50 -90 43 0 -1 -9 -3
-20 -6z"/>
<path d="M2720 4095 c0 -3 12 -10 26 -16 15 -5 24 -12 21 -15 -3 -3 -19 2 -36
10 -40 21 -43 20 -18 -8 17 -19 26 -22 45 -15 26 10 46 3 37 -12 -4 -5 5 -9
18 -9 14 0 30 -7 37 -16 8 -8 34 -27 59 -41 25 -15 55 -34 66 -44 93 -84 102
-90 108 -70 3 13 1 18 -8 15 -7 -3 -32 14 -56 38 -24 23 -64 54 -89 67 -25 13
-77 46 -115 73 -64 43 -95 57 -95 43z"/>
<path d="M2320 4080 c0 -13 11 -13 30 0 12 8 11 10 -7 10 -13 0 -23 -4 -23
-10z"/>
<path d="M2388 4083 c7 -3 16 -2 19 1 4 3 -2 6 -13 5 -11 0 -14 -3 -6 -6z"/>
<path d="M2680 4066 c0 -2 8 -10 18 -17 15 -13 16 -12 3 4 -13 16 -21 21 -21
13z"/>
<path d="M3030 4066 c0 -2 7 -9 15 -16 13 -11 14 -10 9 4 -5 14 -24 23 -24 12z"/>
<path d="M3119 4043 l-24 -28 28 24 c25 23 32 31 24 31 -2 0 -14 -12 -28 -27z"/>
<path d="M2325 4049 c-4 -6 -5 -13 -1 -16 8 -8 86 -10 91 -2 3 3 -7 7 -22 7
-15 0 -29 5 -31 11 -5 14 -29 14 -37 0z"/>
<path d="M3157 4043 c-4 -3 -7 -11 -7 -17 0 -6 5 -5 12 2 6 6 9 14 7 17 -3 3
-9 2 -12 -2z"/>
<path d="M2532 3980 c-12 -19 -11 -20 8 -8 11 7 20 16 20 20 0 15 -15 8 -28
-12z"/>
<path d="M1487 3946 c-4 -10 -1 -13 8 -9 8 3 12 9 9 14 -7 12 -11 11 -17 -5z"/>
<path d="M2518 3933 c18 -2 45 -2 60 0 15 2 0 4 -33 4 -33 0 -45 -2 -27 -4z"/>
<path d="M3035 3930 c3 -5 8 -10 11 -10 2 0 4 5 4 10 0 6 -5 10 -11 10 -5 0
-7 -4 -4 -10z"/>
<path d="M2780 3901 c0 -5 5 -13 10 -16 6 -3 10 -2 10 4 0 5 -4 13 -10 16 -5
3 -10 2 -10 -4z"/>
<path d="M1505 3880 c-3 -5 -2 -10 4 -10 5 0 13 5 16 10 3 6 2 10 -4 10 -5 0
-13 -4 -16 -10z"/>
<path d="M1455 3850 c-3 -5 -1 -10 4 -10 6 0 11 5 11 10 0 6 -2 10 -4 10 -3 0
-8 -4 -11 -10z"/>
<path d="M1760 3790 c0 -5 5 -10 10 -10 6 0 10 5 10 10 0 6 -4 10 -10 10 -5 0
-10 -4 -10 -10z"/>
<path d="M1319 3763 c-17 -20 -18 -23 -3 -11 15 13 23 15 32 6 8 -8 9 -5 5 11
-3 11 -6 21 -7 21 -2 0 -13 -12 -27 -27z"/>
<path d="M1210 3680 c0 -5 5 -10 10 -10 6 0 10 5 10 10 0 6 -4 10 -10 10 -5 0
-10 -4 -10 -10z"/>
<path d="M1690 3680 c-8 -5 -12 -12 -9 -15 8 -8 39 5 39 16 0 11 -11 11 -30
-1z"/>
<path d="M1110 3650 c0 -5 5 -10 10 -10 6 0 10 5 10 10 0 6 -4 10 -10 10 -5 0
-10 -4 -10 -10z"/>
<path d="M1216 3652 c-3 -5 1 -9 9 -9 8 0 12 4 9 9 -3 4 -7 8 -9 8 -2 0 -6 -4
-9 -8z"/>
<path d="M1380 3650 c0 -5 5 -10 10 -10 6 0 10 5 10 10 0 6 -4 10 -10 10 -5 0
-10 -4 -10 -10z"/>
<path d="M880 3555 c0 -8 5 -15 10 -15 6 0 10 7 10 15 0 8 -4 15 -10 15 -5 0
-10 -7 -10 -15z"/>
<path d="M780 3550 c0 -5 5 -10 10 -10 6 0 10 5 10 10 0 6 -4 10 -10 10 -5 0
-10 -4 -10 -10z"/>
<path d="M995 3550 c3 -5 10 -10 16 -10 5 0 9 5 9 10 0 6 -7 10 -16 10 -8 0
-12 -4 -9 -10z"/>
<path d="M710 3540 c0 -5 5 -10 11 -10 5 0 7 5 4 10 -3 6 -8 10 -11 10 -2 0
-4 -4 -4 -10z"/>
<path d="M1130 3536 c0 -9 5 -16 10 -16 6 0 10 4 10 9 0 6 -4 13 -10 16 -5 3
-10 -1 -10 -9z"/>
<path d="M645 3521 c-3 -5 -1 -12 5 -16 5 -3 10 1 10 9 0 18 -6 21 -15 7z"/>
<path d="M1277 3513 c-4 -6 2 -18 13 -28 23 -21 27 -8 7 20 -8 11 -16 14 -20
8z"/>
<path d="M1310 3509 c0 -5 5 -7 10 -4 6 3 10 8 10 11 0 2 -4 4 -10 4 -5 0 -10
-5 -10 -11z"/>
<path d="M565 3450 c-3 -5 -1 -10 4 -10 6 0 11 5 11 10 0 6 -2 10 -4 10 -3 0
-8 -4 -11 -10z"/>
<path d="M550 3399 c0 -5 5 -7 10 -4 6 3 10 8 10 11 0 2 -4 4 -10 4 -5 0 -10
-5 -10 -11z"/>
<path d="M545 3350 c3 -5 8 -10 11 -10 2 0 4 5 4 10 0 6 -5 10 -11 10 -5 0 -7
-4 -4 -10z"/>
<path d="M1176 3305 c4 -8 10 -12 15 -9 14 8 10 24 -6 24 -9 0 -12 -6 -9 -15z"/>
<path d="M550 3300 c0 -5 5 -10 10 -10 6 0 10 5 10 10 0 6 -4 10 -10 10 -5 0
-10 -4 -10 -10z"/>
<path d="M570 3240 c0 -5 5 -10 10 -10 6 0 10 5 10 10 0 6 -4 10 -10 10 -5 0
-10 -4 -10 -10z"/>
<path d="M600 3180 c0 -5 5 -10 11 -10 5 0 7 5 4 10 -3 6 -8 10 -11 10 -2 0
-4 -4 -4 -10z"/>
<path d="M1090 3160 c-8 -5 -10 -10 -5 -10 6 0 17 5 25 10 8 5 11 10 5 10 -5
0 -17 -5 -25 -10z"/>
<path d="M640 3114 c0 -8 5 -12 10 -9 6 4 8 11 5 16 -9 14 -15 11 -15 -7z"/>
<path d="M910 3090 c0 -5 5 -10 10 -10 6 0 10 5 10 10 0 6 -4 10 -10 10 -5 0
-10 -4 -10 -10z"/>
<path d="M4500 2440 c0 -5 5 -10 10 -10 6 0 10 5 10 10 0 6 -4 10 -10 10 -5 0
-10 -4 -10 -10z"/>
<path d="M640 2310 c0 -5 5 -10 10 -10 6 0 10 5 10 10 0 6 -4 10 -10 10 -5 0
-10 -4 -10 -10z"/>
<path d="M4218 2314 c-5 -4 -8 -20 -8 -35 0 -15 -6 -30 -12 -33 -7 -3 -2 -3
12 -1 25 6 25 5 -2 -10 -33 -18 -37 -29 -8 -20 19 6 26 -7 21 -37 0 -5 6 -8
14 -8 11 0 15 12 15 45 0 25 -4 45 -9 45 -6 0 -11 14 -13 31 -2 17 -6 27 -10
23z m19 -106 c-3 -8 -6 -5 -6 6 -1 11 2 17 5 13 3 -3 4 -12 1 -19z"/>
<path d="M4125 2130 c-3 -6 1 -7 9 -4 18 7 21 14 7 14 -6 0 -13 -4 -16 -10z"/>
<path d="M4125 2110 c-13 -6 -15 -9 -5 -9 8 0 22 4 30 9 18 12 2 12 -25 0z"/>
<path d="M3990 2100 c-13 -8 -13 -10 2 -10 9 0 20 5 23 10 8 13 -5 13 -25 0z"/>
<path d="M3940 2090 c0 -5 5 -10 10 -10 6 0 10 5 10 10 0 6 -4 10 -10 10 -5 0
-10 -4 -10 -10z"/>
<path d="M4069 2067 c10 -28 31 -34 31 -9 0 11 -8 22 -19 25 -16 4 -18 1 -12
-16z"/>
<path d="M4356 2065 c-3 -8 -1 -15 3 -15 5 0 11 7 15 15 3 8 1 15 -3 15 -5 0
-11 -7 -15 -15z"/>
<path d="M4470 2060 c0 -5 5 -10 10 -10 6 0 10 5 10 10 0 6 -4 10 -10 10 -5 0
-10 -4 -10 -10z"/>
<path d="M4225 2010 c3 -5 8 -10 11 -10 2 0 4 5 4 10 0 6 -5 10 -11 10 -5 0
-7 -4 -4 -10z"/>
<path d="M4180 1995 c0 -8 4 -15 9 -15 5 0 11 7 15 15 3 9 0 15 -9 15 -8 0
-15 -7 -15 -15z"/>
<path d="M700 1949 c0 -5 5 -7 10 -4 6 3 10 8 10 11 0 2 -4 4 -10 4 -5 0 -10
-5 -10 -11z"/>
<path d="M4242 1930 c0 -19 2 -27 5 -17 2 9 2 25 0 35 -3 9 -5 1 -5 -18z"/>
<path d="M4447 1923 c-3 -4 -10 -34 -17 -67 -8 -39 -17 -60 -28 -63 -13 -3
-17 -16 -18 -56 0 -44 -8 -98 -17 -125 -1 -4 3 -9 8 -11 6 -3 11 12 11 34 1
22 7 41 13 43 6 2 11 14 11 26 0 28 19 53 44 58 29 5 32 28 4 27 -22 0 -22 -1
-3 -9 15 -6 9 -9 -25 -9 -38 0 -42 2 -23 11 15 7 26 28 37 75 15 59 16 88 3
66z"/>
<path d="M4222 1834 c-6 -32 -10 -59 -8 -61 6 -6 28 95 24 108 -2 6 -9 -15
-16 -47z"/>
<path d="M4310 1875 c0 -8 5 -15 10 -15 6 0 10 7 10 15 0 8 -4 15 -10 15 -5 0
-10 -7 -10 -15z"/>
<path d="M727 1847 c-3 -8 -1 -20 5 -28 8 -11 9 -11 5 2 -3 9 0 22 6 28 8 8 8
11 0 11 -6 0 -13 -6 -16 -13z"/>
<path d="M4260 1850 c1 -8 12 -35 26 -60 24 -43 24 -41 2 25 -13 36 -28 55
-28 35z"/>
<path d="M4380 1810 c0 -5 5 -10 10 -10 6 0 10 5 10 10 0 6 -4 10 -10 10 -5 0
-10 -4 -10 -10z"/>
<path d="M4196 1734 c-4 -14 -5 -28 -3 -31 3 -2 8 8 11 23 4 14 5 28 3 31 -3
2 -8 -8 -11 -23z"/>
<path d="M815 1740 c3 -5 8 -10 11 -10 2 0 4 5 4 10 0 6 -5 10 -11 10 -5 0 -7
-4 -4 -10z"/>
<path d="M4310 1737 c0 -4 7 -22 16 -39 13 -25 14 -32 2 -39 -10 -7 -9 -9 4
-9 27 0 28 13 2 55 -13 22 -24 36 -24 32z"/>
<path d="M775 1670 c-3 -5 -1 -10 4 -10 6 0 11 5 11 10 0 6 -2 10 -4 10 -3 0
-8 -4 -11 -10z"/>
<path d="M4500 1670 c0 -5 5 -10 10 -10 6 0 10 5 10 10 0 6 -4 10 -10 10 -5 0
-10 -4 -10 -10z"/>
<path d="M4195 1660 c-3 -5 -1 -10 4 -10 6 0 11 5 11 10 0 6 -2 10 -4 10 -3 0
-8 -4 -11 -10z"/>
<path d="M660 1620 c0 -5 5 -10 10 -10 6 0 10 5 10 10 0 6 -4 10 -10 10 -5 0
-10 -4 -10 -10z"/>
<path d="M4560 1580 c0 -5 7 -10 16 -10 8 0 12 5 9 10 -3 6 -10 10 -16 10 -5
0 -9 -4 -9 -10z"/>
<path d="M4336 1551 c-4 -7 -5 -15 -2 -18 9 -9 19 4 14 18 -4 11 -6 11 -12 0z"/>
<path d="M4610 1500 c0 -5 5 -10 10 -10 6 0 10 5 10 10 0 6 -4 10 -10 10 -5 0
-10 -4 -10 -10z"/>
<path d="M4645 1430 c-3 -5 -1 -10 4 -10 6 0 11 5 11 10 0 6 -2 10 -4 10 -3 0
-8 -4 -11 -10z"/>
<path d="M4660 1364 c0 -8 5 -12 10 -9 6 4 8 11 5 16 -9 14 -15 11 -15 -7z"/>
<path d="M4660 1309 c0 -5 5 -7 10 -4 6 3 10 8 10 11 0 2 -4 4 -10 4 -5 0 -10
-5 -10 -11z"/>
<path d="M4640 1260 c0 -5 5 -10 10 -10 6 0 10 5 10 10 0 6 -4 10 -10 10 -5 0
-10 -4 -10 -10z"/>
<path d="M4615 1231 c-3 -5 -1 -12 5 -16 5 -3 10 1 10 9 0 18 -6 21 -15 7z"/>
<path d="M4580 1200 c0 -5 5 -10 11 -10 5 0 7 5 4 10 -3 6 -8 10 -11 10 -2 0
-4 -4 -4 -10z"/>
<path d="M4060 1165 c0 -8 5 -15 10 -15 6 0 10 7 10 15 0 8 -4 15 -10 15 -5 0
-10 -7 -10 -15z"/>
<path d="M4530 1170 c0 -5 5 -10 10 -10 6 0 10 5 10 10 0 6 -4 10 -10 10 -5 0
-10 -4 -10 -10z"/>
<path d="M4160 1149 c0 -5 5 -7 10 -4 6 3 10 8 10 11 0 2 -4 4 -10 4 -5 0 -10
-5 -10 -11z"/>
<path d="M4405 1151 c-3 -5 -1 -12 5 -16 5 -3 10 1 10 9 0 18 -6 21 -15 7z"/>
<path d="M4250 1139 c0 -5 5 -7 10 -4 6 3 10 8 10 11 0 2 -4 4 -10 4 -5 0 -10
-5 -10 -11z"/>
<path d="M4330 1140 c0 -5 5 -10 10 -10 6 0 10 5 10 10 0 6 -4 10 -10 10 -5 0
-10 -4 -10 -10z"/>
<path d="M1432 850 c3 -8 13 -40 23 -70 10 -30 20 -50 22 -43 2 7 0 21 -6 32
-6 11 -11 31 -11 44 0 14 -8 31 -17 38 -14 12 -16 12 -11 -1z"/>
<path d="M3780 837 c0 -2 15 -14 33 -27 20 -15 27 -17 18 -6 -13 16 -51 41
-51 33z"/>
<path d="M1476 788 c19 -31 76 -108 81 -108 2 0 -15 27 -38 60 -23 33 -44 60
-46 60 -2 0 -1 -6 3 -12z"/>
<path d="M3855 781 c3 -6 -14 -21 -37 -35 -53 -32 -43 -34 17 -3 48 24 54 32
29 41 -8 3 -12 2 -9 -3z"/>
<path d="M1574 734 c3 -9 6 -18 6 -20 0 -2 4 -4 9 -4 5 0 7 9 4 20 -3 11 -10
20 -15 20 -6 0 -7 -7 -4 -16z"/>
<path d="M1480 716 c0 -14 41 -148 52 -169 5 -10 6 -22 3 -27 -11 -17 17 -22
33 -6 15 15 15 16 1 11 -12 -5 -21 10 -39 67 -25 78 -49 139 -50 124z"/>
<path d="M1390 621 c0 -4 17 -20 38 -34 20 -15 51 -36 67 -48 l30 -21 -30 27
c-100 91 -105 94 -105 76z"/>
<path d="M1700 519 c0 -5 5 -7 10 -4 6 3 10 8 10 11 0 2 -4 4 -10 4 -5 0 -10
-5 -10 -11z"/>
<path d="M1748 523 c6 -2 18 -2 25 0 6 3 1 5 -13 5 -14 0 -19 -2 -12 -5z"/>
<path d="M1598 513 c7 -3 16 -2 19 1 4 3 -2 6 -13 5 -11 0 -14 -3 -6 -6z"/>
<path d="M1945 490 c3 -5 8 -10 11 -10 2 0 4 5 4 10 0 6 -5 10 -11 10 -5 0 -7
-4 -4 -10z"/>
<path d="M1745 480 c-3 -5 -2 -10 4 -10 5 0 13 5 16 10 3 6 2 10 -4 10 -5 0
-13 -4 -16 -10z"/>
<path d="M1679 467 c15 -19 41 -23 41 -7 0 6 -4 10 -9 10 -5 0 -18 3 -28 7
-16 6 -16 5 -4 -10z"/>
<path d="M1758 413 c7 -3 16 -2 19 1 4 3 -2 6 -13 5 -11 0 -14 -3 -6 -6z"/>
<path d="M1950 396 c0 -9 5 -16 10 -16 6 0 10 4 10 9 0 6 -4 13 -10 16 -5 3
-10 -1 -10 -9z"/>
<path d="M1980 382 c0 -9 50 -35 56 -29 2 2 -10 11 -26 21 -17 9 -30 13 -30 8z"/>
<path d="M2050 346 c0 -11 70 -44 75 -35 4 5 -2 12 -12 15 -10 3 -28 10 -40
15 -13 5 -23 7 -23 5z"/>
</g>
</svg>
